<svg xmlns="http://www.w3.org/2000/svg" xml:space="preserve" id="flag-icons-gb" x="0" y="0" style="enable-background:new 0 0 640 480" version="1.1" viewBox="0 0 640 480"><style>.st1{fill:#fff}.st2{fill:#c8102e}</style><path d="M0 0h640v480H0V0z" style="fill:#012169"/><path d="m75 0 244 181L562 0h78v62L400 241l240 178v61h-80L320 301 81 480H0v-60l239-178L0 64V0h75z" class="st1"/><path d="m424 281 216 159v40L369 281h55zm-184 20 6 35L54 480H0l240-179zM640 0v3L391 191l2-44L590 0h50zM0 0l239 176h-60L0 42V0z" class="st2"/><path d="M241 0v480h160V0H241zM0 160v160h640V160H0z" class="st1"/><path d="M0 193v96h640v-96H0zM273 0v480h96V0h-96z" class="st2"/><defs><filter id="Adobe_OpacityMaskFilter" width="1065.9" height="639.5" x="-212" y="-84.8" filterUnits="userSpaceOnUse"><feColorMatrix values="1 0 0 0 0 0 1 0 0 0 0 0 1 0 0 0 0 0 1 0"/></filter></defs><mask id="mask0_298_256_00000111161381348935014300000001077356848041702060_" width="1065.9" height="639.5" x="-212" y="-84.8" maskUnits="userSpaceOnUse"><circle cx="324.8" cy="223.6" r="319.8" style="fill:#d9d9d9;filter:url(#Adobe_OpacityMaskFilter)"/></mask><g style="mask:url(#mask0_298_256_00000111161381348935014300000001077356848041702060_)"><path d="M-212-85H854v640H-212z" style="fill:none"/><path d="M435 277v-74h17v30h14v-30h16v74h-16v-29h-15v29h-16zM407 250l-13-9c-6-4-10-10-10-18v-2c0-12 7-19 22-19s21 7 21 19v6h-16v-6c0-3-1-5-5-5-5 0-6 2-6 6v1c0 3 1 5 6 8l12 8c7 4 10 10 10 18v2c0 11-7 19-22 19s-22-8-22-19v-5h16v5c0 3 1 5 6 5 4 0 6-2 6-5v-2c0-3-1-5-5-7zM376 277h-16v-74h16v74zM354 263v14h-36v-74h16v60h20zM263 259v-38c0-11 8-19 23-19s22 8 22 19v5h-16v-4c0-3-2-5-6-5-5 0-7 2-7 5v36c0 3 2 5 7 5 4 0 6-2 6-5v-10h-6v-14h22v43h-15v-7c0 1-3 7-12 7-12 0-18-7-18-18zM239 277l-10-26-9-24c0 1 3 10 3 30v20h-16v-74h16l9 25 9 24c-1-2-3-11-3-31v-18h16v74h-15zM199 263v14h-38v-74h38v14h-22v16h19v13h-19v17h22z" class="st1"/></g></svg>