<svg xmlns="http://www.w3.org/2000/svg" xml:space="preserve" id="flag-icons-es" x="0" y="0" style="enable-background:new 0 0 640 480" version="1.1" viewBox="0 0 640 480"><style>.st2{fill:#ad1519}.st3{fill:none;stroke:#000;stroke-width:.3;stroke-linejoin:round}.st4{fill:#c8b100}.st5{fill:none;stroke:#000;stroke-width:.3}.st6{fill:#fff}.st7{fill:#058e6e}.st8,.st9{fill:none;stroke:#000;stroke-width:.4}.st9{stroke-linejoin:round}.st10{fill:#005bbf}.st11{fill:#ccc}.st12{stroke-width:.2}.st12,.st13,.st14,.st16{fill:none;stroke:#000}.st13{stroke-width:.3;stroke-linecap:round}.st14,.st16{stroke-width:.1}.st16{fill:#c8b100;stroke-width:.4}.st17,.st18{fill:none;stroke:#000;stroke-width:.5}.st18{stroke-width:.6}.st21,.st22,.st23,.st26{fill:#fff;stroke:#000;stroke-width:.4}.st22,.st23,.st26{fill:#ad1519}.st23,.st26{fill:#058e6e}.st26{fill:#c8b100;stroke-width:.5}.st29{fill:none;stroke:#c8b100;stroke-width:.3}.st30{fill:#db4446}.st33{fill:#058e6e;stroke:#000;stroke-width:.5}.st36{fill:none}</style><path d="M0 .5h640v480H0V.5z" style="fill:#aa151b"/><path d="M0 130.9h640v240H0v-240z" style="fill:#f1bf00"/><path d="m58.8 213.8-.8-.1-1-1-.7-.4-.6-.8s-.7-1.1-.4-2c.3-.9.9-1.2 1.4-1.5.5-.2 1-.4 1.5-.5l1-.4 1.3-.3.5-.3c.2 0 .7 0 1-.2l1-.2 1.6.1h4.8c.4 0 1.2.3 1.4.4.7.3 1.3.5 2 .7.5.1 1.6.3 2.2.6.5.3.9.7 1.1 1l.5 1v1.1l-.5.8-.6 1-.8.6s-.5.5-1 .4c-.4 0-4.8-.8-7.6-.8s-7.3.9-7.3.9" class="st2"/><path d="m58.8 213.8-.8-.1-1-1-.7-.4-.6-.8s-.7-1.1-.4-2c.3-.9.9-1.2 1.4-1.5.5-.2 1-.4 1.5-.5l1-.4 1.3-.3.5-.3c.2 0 .7 0 1-.2l1-.2 1.6.1h4.8c.4 0 1.2.3 1.4.4.7.3 1.3.5 2 .7.5.1 1.6.3 2.2.6.5.3.9.7 1.1 1l.5 1v1.1l-.5.8-.6 1-.8.6s-.5.5-1 .4c-.4 0-4.8-.8-7.6-.8s-7.3.9-7.3.9v-.1z" class="st3"/><path d="M64.8 207.5c0-1.3.6-2.3 1.3-2.3.8 0 1.4 1 1.4 2.4 0 1.3-.6 2.4-1.4 2.4s-1.3-1.1-1.3-2.5" class="st4"/><path d="M64.8 207.5c0-1.3.6-2.3 1.3-2.3.8 0 1.4 1 1.4 2.4 0 1.3-.6 2.4-1.4 2.4s-1.3-1.1-1.3-2.5z" class="st5"/><path d="M65.5 207.5c0-1.2.3-2.1.7-2.1.3 0 .6 1 .6 2.1 0 1.3-.3 2.2-.6 2.2-.4 0-.6-1-.7-2.2" class="st4"/><path d="M65.5 207.5c0-1.2.3-2.1.7-2.1.3 0 .6 1 .6 2.1 0 1.3-.3 2.2-.6 2.2-.4 0-.6-1-.7-2.2z" class="st5"/><path d="M65.3 205c0-.4.4-.8.8-.8s1 .4 1 .8c0 .5-.5.9-1 .9s-.8-.4-.8-.9" class="st4"/><path d="M66.8 204.7v.6h-1.4v-.6h.5v-1.2h-.7v-.6h.7v-.5h.5v.5h.6v.6h-.6v1.2h.4z" class="st4"/><path d="M66.8 204.7v.6h-1.4v-.6h.5v-1.2h-.7v-.6h.7v-.5h.5v.5h.6v.6h-.6v1.2h.4" class="st5"/><path d="M67.4 204.7v.6h-2.5v-.6h1v-1.2h-.7v-.6h.7v-.5h.5v.5h.6v.6h-.6v1.2h1z" class="st4"/><path d="M67.4 204.7v.6h-2.5v-.6h1v-1.2h-.7v-.6h.7v-.5h.5v.5h.6v.6h-.6v1.2h1" class="st5"/><path d="M66.4 204.2c.4.1.6.4.6.8 0 .5-.4.9-.8.9s-1-.4-1-.9c0-.4.3-.7.7-.8" class="st5"/><path d="M66.2 213.7h-4.7v-1.1l-.3-1.2-.2-1.5c-1.3-1.7-2.5-2.8-2.9-2.5.1-.3.2-.6.5-.7 1.1-.7 3.5 1 5.2 3.6l.5.7h3.8l.4-.7c1.8-2.7 4.1-4.3 5.2-3.6.3.1.4.4.5.7-.4-.3-1.6.8-2.9 2.5l-.2 1.5-.2 1.2-.1 1.1h-4.6z" class="st4"/><path d="M66.2 213.7h-4.7v-1.1l-.3-1.2-.2-1.5c-1.3-1.7-2.5-2.8-2.9-2.5.1-.3.2-.6.5-.7 1.1-.7 3.5 1 5.2 3.6l.5.7h3.8l.4-.7c1.8-2.7 4.1-4.3 5.2-3.6.3.1.4.4.5.7-.4-.3-1.6.8-2.9 2.5l-.2 1.5-.2 1.2-.1 1.1h-4.6z" class="st5"/><path d="M58.3 207.3c1-.5 3 1.1 4.6 3.6m11-3.6c-.8-.5-2.8 1.1-4.5 3.6" class="st5"/><path d="m59.3 215.8-.5-1c4.8-1.3 9.9-1.3 14.7 0l-.5.8c-.1.3-.2.5-.3.8-2.1-.6-4.4-.9-6.6-.8-2.6 0-5.2.3-6.5.8l-.3-.6z" class="st4"/><path d="m59.3 215.8-.5-1c4.8-1.3 9.9-1.3 14.7 0l-.5.8c-.1.3-.2.5-.3.8-2.1-.6-4.4-.9-6.6-.8-2.6 0-5.2.3-6.5.8l-.3-.6" class="st5"/><path d="M66.1 218.2c2.4 0 5-.4 5.9-.6.6-.2 1-.5 1-.8 0-.2-.2-.3-.4-.4-1.4-.5-4-.8-6.5-.8s-5 .3-6.4.8c-.2 0-.3.2-.4.3 0 .4.3.7 1 .9 1 .2 3.5.6 5.8.6" class="st4"/><path d="M66.1 218.2c2.4 0 5-.4 5.9-.6.6-.2 1-.5 1-.8 0-.2-.2-.3-.4-.4-1.4-.5-4-.8-6.5-.8s-5 .3-6.4.8c-.2 0-.3.2-.4.3 0 .4.3.7 1 .9 1 .2 3.5.6 5.8.6z" class="st5"/><path d="m73.6 213.7-.5-.5s-.6.3-1.3.2c-.6 0-.9-1-.9-1s-.7.7-1.3.7c-.7 0-1-.6-1-.6s-.7.5-1.3.4c-.6 0-1.2-.8-1.2-.8s-.6.8-1.2.8c-.6.1-1-.5-1-.5s-.4.6-1.1.7-1.4-.6-1.4-.6-.5.7-1 1c-.5 0-1.2-.4-1.2-.4l-.2.5-.3.1.2.5c2.3-.6 4.8-.9 7.2-.9 3 0 5.5.4 7.4 1l.1-.6z" class="st4"/><path d="m73.6 213.7-.5-.5s-.6.3-1.3.2c-.6 0-.9-1-.9-1s-.7.7-1.3.7c-.7 0-1-.6-1-.6s-.7.5-1.3.4c-.6 0-1.2-.8-1.2-.8s-.6.8-1.2.8c-.6.1-1-.5-1-.5s-.4.6-1.1.7-1.4-.6-1.4-.6-.5.7-1 1c-.5 0-1.2-.4-1.2-.4l-.2.5-.3.1.2.5c2.3-.6 4.8-.9 7.2-.9 3 0 5.5.4 7.4 1l.1-.6z" class="st5"/><path d="M66.2 211.2h.2v.4c0 .6.4 1 1 1 .5 0 .9-.3 1-.7l.2-.3v.4c.1.5.6.8 1.1.8.6 0 1-.4 1-1v-.1l.4-.4.2.5c-.1.1-.1.3-.1.4 0 .6.4 1 1 1 .4 0 .7-.2.9-.5l.2-.2v.3c0 .3.1.6.4.7 0 0 .4 0 1-.4l.7-.7v.4s-.5.8-1 1c-.2.2-.5.4-.8.3-.3 0-.6-.3-.7-.6-.2.2-.4.2-.7.2-.6 0-1.2-.3-1.4-.8-.3.3-.7.5-1.1.5-.5 0-.9-.2-1.2-.6-.3.2-.6.4-1 .4-.5 0-1-.2-1.3-.6-.5.7-1.5.9-2.2.3-.1 0-.1-.1-.2-.1-.3.4-.7.6-1.2.6-.4 0-.8-.2-1.1-.5-.2.5-.8.8-1.4.8-.2 0-.5 0-.7-.2-.1.3-.4.6-.7.6-.3 0-.6 0-.9-.2l-1-1 .1-.5.8.7c.5.4.9.4.9.4.3 0 .4-.4.4-.7v-.3l.2.2c.2.3.5.5.9.5.6 0 1-.4 1-1v-.9l.4.4v.1c0 .6.5 1 1 1 .6 0 1-.3 1.1-.9v-.3l.2.3c.2.4.6.7 1 .7.7 0 1.1-.4 1.1-1v-.3l.3-.1" class="st4"/><path d="M66.2 211.2h.2v.4c0 .6.4 1 1 1 .5 0 .9-.3 1-.7l.2-.3v.4c.1.5.6.8 1.1.8.6 0 1-.4 1-1v-.1l.4-.4.2.5c-.1.1-.1.3-.1.4 0 .6.4 1 1 1 .4 0 .7-.2.9-.5l.2-.2v.3c0 .3.1.6.4.7 0 0 .4 0 1-.4l.7-.7v.4s-.5.8-1 1c-.2.2-.5.4-.8.3-.3 0-.6-.3-.7-.6-.2.2-.4.2-.7.2-.6 0-1.2-.3-1.4-.8-.3.3-.7.5-1.1.5-.5 0-.9-.2-1.2-.6-.3.2-.6.4-1 .4-.5 0-1-.2-1.3-.6-.5.7-1.5.9-2.2.3-.1 0-.1-.1-.2-.1-.3.4-.7.6-1.2.6-.4 0-.8-.2-1.1-.5-.2.5-.8.8-1.4.8-.2 0-.5 0-.7-.2-.1.3-.4.6-.7.6-.3 0-.6 0-.9-.2l-1-1 .1-.5.8.7c.5.4.9.4.9.4.3 0 .4-.4.4-.7v-.3l.2.2c.2.3.5.5.9.5.6 0 1-.4 1-1v-.9l.4.4v.1c0 .6.5 1 1 1 .6 0 1-.3 1.1-.9v-.3l.2.3c.2.4.6.7 1 .7.7 0 1.1-.4 1.1-1v-.3l.3-.1z" class="st5"/><path d="M66.1 213.8c-2.9 0-5.5.4-7.3 1l-.3-.2.1-.3c2.4-.7 5-1 7.5-1 3 0 5.7.4 7.6 1 0 0 .2.2.1.3l-.3.2c-2.4-.7-4.9-1-7.4-1" class="st4"/><path d="M66.1 213.8c-2.9 0-5.5.4-7.3 1l-.3-.2.1-.3c2.4-.7 5-1 7.5-1 3 0 5.7.4 7.6 1 0 0 .2.2.1.3l-.3.2c-2.4-.7-4.9-1-7.4-1z" class="st3"/><path d="M63.3 214.9c0-.3.2-.4.5-.4.2 0 .4.2.4.4s-.2.4-.4.4c-.2.1-.4-.1-.5-.3v-.1" class="st6"/><path d="M63.3 214.9c0-.3.2-.4.5-.4.2 0 .4.2.4.4s-.2.4-.4.4c-.2.1-.4-.1-.5-.3v-.1z" class="st5"/><path d="M66.2 215h-1c-.1 0-.3 0-.3-.3l.3-.3h2c.1 0 .2.2.2.3 0 .2-.1.3-.3.3h-1" class="st2"/><path d="M66.2 215h-1c-.1 0-.3 0-.3-.3l.3-.3h2c.1 0 .2.2.2.3 0 .2-.1.3-.3.3h-1" class="st5"/><path d="M61.5 215.4h-.7c-.1 0-.3 0-.3-.2 0-.1.1-.3.2-.3l.7-.1.7-.1c.2 0 .3 0 .4.2.1.2 0 .3-.2.4h-.1l-.7.1z" class="st7"/><path d="M61.5 215.4h-.7c-.1 0-.3 0-.3-.2 0-.1.1-.3.2-.3l.7-.1.7-.1c.2 0 .3 0 .4.2.1.2 0 .3-.2.4H61.5" class="st5"/><path d="m58.8 215.8.3-.4h.7l-.4.6-.6-.2z" class="st2"/><path d="m58.8 215.8.3-.4h.7l-.4.6-.6-.2" class="st5"/><path d="M68.1 214.9c0-.3.2-.4.4-.4.2-.1.4.1.5.3v.1c0 .2-.2.4-.4.4h-.1c-.3 0-.4-.2-.4-.4" class="st6"/><path d="M68.1 214.9c0-.3.2-.4.4-.4.2-.1.4.1.5.3v.1c0 .2-.2.4-.4.4h-.1c-.3 0-.4-.2-.4-.4z" class="st5"/><path d="M70.8 215.4h.6c.2.1.3 0 .4-.2 0-.2-.1-.3-.3-.3l-.6-.1-.7-.1c-.2 0-.3 0-.4.2 0 .2.1.3.3.4l.7.1z" class="st7"/><path d="M70.8 215.4h.6c.2.1.3 0 .4-.2 0-.2-.1-.3-.3-.3l-.6-.1-.7-.1c-.2 0-.3 0-.4.2 0 .2.1.3.3.4h.7" class="st5"/><path d="m73.5 215.9-.3-.5h-.7l.3.6.7-.1z" class="st2"/><path d="m73.5 215.9-.3-.5h-.7l.3.6.7-.1" class="st5"/><path d="M66.1 217.6c-2 0-4-.2-6-.6 4-1 8.1-1 12.1 0-1.6.4-3.7.6-6 .6" class="st2"/><path d="M66.1 217.6c-2 0-4-.2-6-.6 4-1 8.1-1 12.1 0-1.6.4-3.7.6-6 .6h-.1z" class="st3"/><path d="m73.5 212.5-.1-.3c-.2 0-.3 0-.4.2 0 .2 0 .4.2.4 0 0 .2 0 .3-.3" class="st4"/><path d="m73.5 212.5-.1-.3c-.2 0-.3 0-.4.2 0 .2 0 .4.2.4 0 0 .2 0 .3-.3z" class="st5"/><path d="M68.8 211.7c0-.2 0-.4-.2-.4 0 0-.2.1-.2.3s0 .4.2.4l.3-.3" class="st4"/><path d="M68.8 211.7c0-.2 0-.4-.2-.4 0 0-.2.1-.2.3s0 .4.2.4l.3-.3h-.1z" class="st5"/><path d="m63.5 211.7.1-.4c.2 0 .3.1.3.3s0 .4-.2.4l-.2-.3z" class="st4"/><path d="m63.5 211.7.1-.4c.2 0 .3.1.3.3s0 .4-.2.4l-.2-.3z" class="st5"/><path d="m58.8 212.5.1-.3c.2 0 .3 0 .4.2 0 .2 0 .4-.2.4 0 0-.2 0-.3-.3" class="st4"/><path d="m58.8 212.5.1-.3c.2 0 .3 0 .4.2 0 .2 0 .4-.2.4 0 0-.2 0-.3-.3z" class="st5"/><path d="m66.1 209-.8.5.6 1.3.2.1.2-.1.7-1.3-.9-.5z" class="st4"/><path d="m66.1 209-.8.5.6 1.3.2.1.2-.1.7-1.3-.9-.5" class="st5"/><path d="m64.3 211 .4.5 1.3-.4.1-.2-.1-.2-1.3-.3-.4.6z" class="st4"/><path d="m64.3 211 .4.5 1.3-.4.1-.2-.1-.2-1.3-.3-.4.6" class="st5"/><path d="m67.9 211-.3.5-1.3-.4-.2-.2.2-.2 1.3-.3.3.6z" class="st4"/><path d="m67.9 211-.3.5-1.3-.4-.2-.2.2-.2 1.3-.3.3.6" class="st5"/><path d="m60.8 209.5-.7.7.9 1 .2.1.1-.1.3-1.3-.8-.4z" class="st4"/><path d="m60.8 209.5-.7.7.9 1 .2.1.1-.1.3-1.3-.8-.4" class="st5"/><path d="m59.5 211.7.4.5 1.2-.6v-.2l-.1-.2-1.3-.1-.3.6" class="st4"/><path d="m59.5 211.7.4.5 1.2-.6v-.2l-.1-.2-1.3-.1-.3.6" class="st5"/><path d="m63 211-.3.6h-1.2l-.2-.2.1-.3 1.2-.6.4.5z" class="st4"/><path d="m63 211-.3.6h-1.2l-.2-.2.1-.3 1.2-.6.5.5" class="st5"/><path d="M58.1 211.9v.6l-1.4.2-.2-.1v-.2l1-.9.6.4z" class="st4"/><path d="M58.1 211.9v.6l-1.4.2-.2-.1v-.2l1-.9.6.4" class="st5"/><path d="M60.7 211.4c0-.3.2-.5.5-.5s.5.2.5.5c0 .2-.3.4-.5.4-.3 0-.5-.2-.5-.4" class="st4"/><path d="M60.7 211.4c0-.3.2-.5.5-.5s.5.2.5.5c0 .2-.3.4-.5.4-.3 0-.5-.2-.5-.4z" class="st5"/><path d="m71.5 209.5.7.7-.9 1-.2.1-.1-.1-.3-1.3.8-.4z" class="st4"/><path d="m71.5 209.5.7.7-.9 1-.2.1-.1-.1-.3-1.3.8-.4" class="st5"/><path d="m72.9 211.7-.5.5-1.2-.6v-.2l.1-.2 1.3-.1.3.6z" class="st4"/><path d="m72.9 211.7-.5.5-1.2-.6v-.2l.1-.2 1.3-.1.3.6" class="st5"/><path d="m69.3 211 .3.6h1.3l.2-.2-.1-.3-1.2-.6-.5.5z" class="st4"/><path d="m69.3 211 .3.6h1.3l.2-.2-.1-.3-1.2-.6-.5.5" class="st5"/><path d="m74 211.9.1.6 1.3.2.2-.1v-.2l-1-.9-.6.4z" class="st4"/><path d="m74 211.9.1.6 1.3.2.2-.1v-.2l-1-.9-.6.4" class="st5"/><path d="M65.7 210.9c0-.2.2-.4.4-.4.3 0 .5.2.5.4 0 .3-.2.5-.5.5s-.4-.3-.4-.5" class="st4"/><path d="M65.7 210.9c0-.2.2-.4.4-.4.3 0 .5.2.5.4 0 .3-.2.5-.5.5s-.4-.3-.4-.5z" class="st5"/><path d="M70.6 211.4c0-.3.3-.5.5-.5.3 0 .5.2.5.5 0 .2-.3.4-.5.4-.3 0-.5-.2-.5-.4" class="st4"/><path d="M70.6 211.4c0-.3.3-.5.5-.5.3 0 .5.2.5.5 0 .2-.3.4-.5.4-.3 0-.5-.2-.5-.4z" class="st5"/><path d="m56.3 212.7-.6-.7c-.2-.2-.7-.3-.7-.3 0-.1.3-.3.6-.3.2 0 .3.1.4.2v-.2s.3 0 .4.3v1" class="st4"/><path d="m56.3 212.7-.6-.7c-.2-.2-.7-.3-.7-.3 0-.1.3-.3.6-.3.2 0 .3.1.4.2v-.2s.3 0 .4.3v1h-.1z" class="st5"/><path d="M56.3 212.5c.1-.2.4-.2.5 0 .2.1.3.3.2.5l-.5-.1c-.2-.1-.3-.4-.2-.5" class="st4"/><path d="M56.3 212.5c.1-.2.4-.2.5 0 .2.1.3.3.2.5l-.5-.1c-.2-.1-.3-.4-.2-.5v.1z" class="st5"/><path d="m75.8 212.7.6-.7c.2-.2.7-.3.7-.3 0-.1-.3-.3-.6-.3-.2 0-.3.1-.4.2v-.2s-.3 0-.4.3v.7l.1.3z" class="st4"/><path d="m75.8 212.7.6-.7c.2-.2.7-.3.7-.3 0-.1-.3-.3-.6-.3-.2 0-.3.1-.4.2v-.2s-.3 0-.4.3v.7l.1.3z" class="st5"/><path d="M75.8 212.5c0-.2-.3-.2-.5 0-.2.1-.2.3-.1.5l.5-.1c.2-.1.2-.4.1-.5" class="st4"/><path d="M75.8 212.5c0-.2-.3-.2-.5 0-.2.1-.2.3-.1.5l.5-.1c.2-.1.2-.4.1-.5v.1z" class="st5"/><path d="M55.5 223.5h21.4V218H55.5v5.5z" class="st4"/><path d="M55.5 223.5h21.4V218H55.5v5.5z" class="st8"/><path d="M57.7 227.3h16.9c-.5-.2-.9-.6-1-1.2 0-.6.5-1.1 1-1.3H57.7c.6.2 1 .7 1 1.3-.1.6-.5 1.1-1 1.2" class="st4"/><path d="M57.7 227.3h16.9c-.5-.2-.9-.6-1-1.2 0-.6.5-1.1 1-1.3H57.7c.6.2 1 .7 1 1.3-.1.6-.5 1.1-1 1.2z" class="st9"/><path d="M58.1 227.3h16c.6 0 1 .3 1 .7s-.4.8-1 .8h-16c-.5 0-1-.4-1-.8s.5-.8 1-.8" class="st4"/><path d="M58.1 227.3h16c.6 0 1 .3 1 .7s-.4.8-1 .8h-16c-.5 0-1-.4-1-.8s.5-.8 1-.8v.1z" class="st8"/><path d="M58.1 223.5h16c.6 0 1 .4 1 .7 0 .4-.4.6-1 .6h-16c-.5 0-1-.2-1-.6 0-.3.5-.6 1-.7" class="st4"/><path d="M58.1 223.5h16c.6 0 1 .4 1 .7 0 .4-.4.6-1 .6h-16c-.5 0-1-.2-1-.6 0-.3.5-.6 1-.7z" class="st8"/><path d="M81.1 317.9c-1.4 0-2.8-.3-3.7-.8-1.2-.6-2.5-.8-3.8-.8-1.4 0-2.7.3-3.7.8-1.2.6-2.5.8-3.8.8-1.5 0-2.8-.3-3.7-.8-1.2-.5-2.4-.8-3.7-.8-1.3 0-2.5.2-3.7.8-1.2.6-2.5.8-3.8.8v2.4c1.5 0 2.8-.4 3.8-.9 1.2-.6 2.4-.8 3.7-.8 1.4 0 2.7.3 3.7.8s2.2.9 3.7.9c1.3 0 2.6-.3 3.8-.9 1-.5 2.3-.8 3.7-.8 1.5 0 2.8.3 3.8.8s2.2.9 3.7.9v-2.4z" class="st10"/><path d="M81.1 317.9c-1.4 0-2.8-.3-3.7-.8-1.2-.6-2.5-.8-3.8-.8-1.4 0-2.7.3-3.7.8-1.2.6-2.5.8-3.8.8-1.5 0-2.8-.3-3.7-.8-1.2-.5-2.4-.8-3.7-.8-1.3 0-2.5.2-3.7.8-1.2.6-2.5.8-3.8.8v2.4c1.5 0 2.8-.4 3.8-.9 1.2-.6 2.4-.8 3.7-.8 1.4 0 2.7.3 3.7.8s2.2.9 3.7.9c1.3 0 2.6-.3 3.8-.9 1-.5 2.3-.8 3.7-.8 1.5 0 2.8.3 3.8.8s2.2.9 3.7.9v-2.4z" class="st8"/><path d="M81.1 320.3c-1.3 0-2.6-.3-3.7-.9-1.2-.6-2.5-.8-3.8-.8-1.4 0-2.7.3-3.7.8s-2.3.9-3.8.9-2.8-.4-3.7-.9c-1.2-.5-2.4-.8-3.7-.8-1.3 0-2.5.2-3.7.8-1 .5-2.3.9-3.8.9v2.3c1.5 0 2.8-.4 3.8-.9 1.2-.5 2.4-.8 3.7-.7 1.4 0 2.7.2 3.7.7 2.4 1.2 5.1 1.2 7.5 0 2.4-1.1 5.2-1.1 7.5.1 1.2.6 2.4.8 3.7.8v-2.3z" class="st11"/><path d="M81.1 320.3c-1.3 0-2.6-.3-3.7-.9-1.2-.6-2.5-.8-3.8-.8-1.4 0-2.7.3-3.7.8s-2.3.9-3.8.9-2.8-.4-3.7-.9c-1.2-.5-2.4-.8-3.7-.8-1.3 0-2.5.2-3.7.8-1 .5-2.3.9-3.8.9v2.3c1.5 0 2.8-.4 3.8-.9 1.2-.5 2.4-.8 3.7-.7 1.4 0 2.7.2 3.7.7 2.4 1.2 5.1 1.2 7.5 0 2.4-1.1 5.2-1.1 7.5.1 1.2.6 2.4.8 3.7.8v-2.3" class="st8"/><path d="M81.1 322.5c-1.3.1-2.6-.2-3.7-.8a8.3 8.3 0 0 0-3.8-.7c-1.4 0-2.7.2-3.7.7-1 .6-2.3.9-3.8.9s-2.8-.4-3.7-.9c-1.2-.5-2.4-.8-3.7-.8-1.3 0-2.5.2-3.7.8-1 .5-2.3.9-3.8.9v2.3c1.5 0 2.8-.3 3.8-.9 2.4-.9 5-.9 7.4 0 1.1.6 2.4.9 3.7.9 1.3 0 2.6-.2 3.8-.8 1-.5 2.3-.8 3.7-.8 1.5 0 2.8.3 3.8.8s2.2.8 3.7.8v-2.4z" class="st10"/><path d="M81.1 322.5c-1.3.1-2.6-.2-3.7-.8a8.3 8.3 0 0 0-3.8-.7c-1.4 0-2.7.2-3.7.7-1 .6-2.3.9-3.8.9s-2.8-.4-3.7-.9c-1.2-.5-2.4-.8-3.7-.8-1.3 0-2.5.2-3.7.8-1 .5-2.3.9-3.8.9v2.3c1.5 0 2.8-.3 3.8-.9 2.4-.9 5-.9 7.4 0 1.1.6 2.4.9 3.7.9 1.3 0 2.6-.2 3.8-.8 1-.5 2.3-.8 3.7-.8 1.5 0 2.8.3 3.8.8s2.2.8 3.7.8v-2.4" class="st8"/><path d="M81.1 327.2c-1.3 0-2.5-.2-3.7-.8-1-.5-2.3-.8-3.7-.8-1.3 0-2.6.2-3.8.8-1 .5-2.3.8-3.8.8-1.3 0-2.6-.3-3.7-.9-1.2-.5-2.4-.7-3.7-.7-1.4 0-2.7.3-3.7.8s-2.3.8-3.8.8v-2.3c1.3 0 2.6-.3 3.8-.9 2.4-.9 5-.9 7.4 0 1.1.6 2.4.9 3.7.9 1.3 0 2.6-.2 3.8-.8 1-.5 2.3-.8 3.8-.8 1.4 0 2.7.3 3.7.8s2.3.8 3.7.8v2.3z" class="st11"/><path d="M81.1 327.2c-1.3 0-2.5-.2-3.7-.8-1-.5-2.3-.8-3.7-.8-1.3 0-2.6.2-3.8.8-1 .5-2.3.8-3.8.8-1.3 0-2.6-.3-3.7-.9-1.2-.5-2.4-.7-3.7-.7-1.4 0-2.7.3-3.7.8s-2.3.8-3.8.8v-2.3c1.3 0 2.6-.3 3.8-.9 2.4-.9 5-.9 7.4 0 1.1.6 2.4.9 3.7.9 1.3 0 2.6-.2 3.8-.8 1-.5 2.3-.8 3.8-.8 1.4 0 2.7.3 3.7.8s2.3.8 3.7.8v2.3" class="st8"/><path d="M81.1 329.5c-1.3 0-2.5-.2-3.7-.8-1-.5-2.3-.8-3.7-.8-1.3 0-2.6.2-3.8.8-1 .5-2.3.8-3.8.8-1.3 0-2.6-.3-3.7-.9-1.2-.5-2.4-.7-3.7-.7-1.4 0-2.7.3-3.7.8s-2.3.8-3.8.8v-2.3c1.3 0 2.6-.2 3.8-.8 1-.5 2.3-.8 3.7-.8s2.7.3 3.7.7c2.4 1.2 5.1 1.2 7.5 0 1-.4 2.3-.7 3.8-.7 1.4 0 2.7.3 3.7.8s2.2.8 3.7.8v2.3z" class="st10"/><path d="M81.1 329.5c-1.3 0-2.5-.2-3.7-.8-1-.5-2.3-.8-3.7-.8-1.3 0-2.6.2-3.8.8-1 .5-2.3.8-3.8.8-1.3 0-2.6-.3-3.7-.9-1.2-.5-2.4-.7-3.7-.7-1.4 0-2.7.3-3.7.8s-2.3.8-3.8.8v-2.3c1.3 0 2.6-.2 3.8-.8 1-.5 2.3-.8 3.7-.8s2.7.3 3.7.7c2.4 1.2 5.1 1.2 7.5 0 1-.4 2.3-.7 3.8-.7 1.4 0 2.7.3 3.7.8s2.2.8 3.7.8v2.3z" class="st8"/><path d="m57.7 308.5.2.5c0 1.5-1.3 2.6-2.7 2.6h22c-1.5 0-2.6-1.1-2.7-2.6v-.5H57.7" class="st4"/><path d="m57.7 308.5.2.5c0 1.5-1.3 2.6-2.7 2.6h22c-1.5 0-2.6-1.1-2.7-2.6v-.5H57.7z" class="st9"/><path d="M58.1 307h16c.6 0 1 .3 1 .8 0 .4-.4.7-1 .7h-16c-.5 0-1-.3-1-.8 0-.4.5-.7 1-.7" class="st4"/><path d="M58.1 307h16c.6 0 1 .3 1 .8 0 .4-.4.7-1 .7h-16c-.5 0-1-.3-1-.8 0-.4.5-.7 1-.7z" class="st8"/><path d="M55.2 317.2h22v-5.7h-22v5.7z" class="st4"/><path d="M55.2 317.2h22v-5.7h-22v5.7z" class="st8"/><path d="M53.5 287.2c-2.2 1.2-3.7 2.5-3.4 3.2 0 .6.8 1 1.8 1.6 1.5 1.1 2.5 3 1.7 4 2.4-1.8 2.9-5.3 1-7.7-.3-.4-.7-.8-1.1-1.1" class="st2"/><path d="M53.5 287.2c-2.2 1.2-3.7 2.5-3.4 3.2 0 .6.8 1 1.8 1.6 1.5 1.1 2.5 3 1.7 4 2.4-1.8 2.9-5.3 1-7.7-.3-.4-.7-.8-1.1-1.1z" class="st8"/><path d="M58.3 306.1h15.6v-76.6H58.3v76.6z" class="st11"/><path d="M69.5 229.7V306m1.7-76.3V306m-12.9 0h15.6v-76.4H58.3v76.5-.1z" class="st8"/><path d="M89.9 258.2a49.8 49.8 0 0 0-23.3-2c-9.4 1.6-16.5 5.3-15.9 8.4v.2l-3.5-8.2c-.6-3.3 7.2-7.5 17.6-9.2 3-.6 6.1-.8 9.2-.7 6.6 0 12.4.8 15.8 2.1v9.4" class="st2"/><path d="M89.9 258.2a49.8 49.8 0 0 0-23.3-2c-9.4 1.6-16.5 5.3-15.9 8.4v.2l-3.5-8.2c-.6-3.3 7.2-7.5 17.6-9.2 3-.6 6.1-.8 9.2-.7 6.6 0 12.4.8 15.8 2.1v9.4" class="st9"/><path d="M58.3 267.8c-4.3-.3-7.3-1.4-7.6-3.2-.3-1.5 1.2-3 3.8-4.5 1.2.1 2.5.3 3.8.3v7.4z" class="st2"/><path d="M58.3 267.8c-4.3-.3-7.3-1.4-7.6-3.2-.3-1.5 1.2-3 3.8-4.5 1.2.1 2.5.3 3.8.3v7.4" class="st8"/><path d="M74 262c2.7.4 4.7 1 5.7 1.9l.1.2c.5 1-1.9 3-5.9 5.4l.1-7.5" class="st2"/><path d="M74 262c2.7.4 4.7 1 5.7 1.9l.1.2c.5 1-1.9 3-5.9 5.4l.1-7.5" class="st8"/><path d="M48.6 282.5c-.4-1.2 3.8-3.6 9.8-5.8l7.8-3.2c8.3-3.7 14.4-7.9 13.6-9.4v-.2c.4.4 1 8 1 8 .8 1.3-4.8 5.5-12.4 9.1-2.5 1.2-7.6 3-10 4-4.4 1.4-8.7 4.3-8.3 5.3l-1.5-7.8" class="st2"/><path d="M48.6 282.5c-.4-1.2 3.8-3.6 9.8-5.8l7.8-3.2c8.3-3.7 14.4-7.9 13.6-9.4v-.2c.4.4 1 8 1 8 .8 1.3-4.8 5.5-12.4 9.1-2.5 1.2-7.6 3-10 4-4.4 1.4-8.7 4.3-8.3 5.3l-1.5-7.8z" class="st9"/><path d="M57.3 254.5c1.9-.6 3.1-1.5 2.5-3-.4-1-1.4-1-2.8-.6l-2.6 1 2.3 5.8.8-.3.8-.3-1-2.6zm-1.2-2.7.7-.3c.5-.2 1.2.1 1.4.8.2.5.2 1-.5 1.5l-.6.3-1-2.3zm7.3-2.5-.9.3h-.8l1.3 6.1 4.3-.8-.2-.4v-.4l-2.5.6-1.2-5.4zm8.4 5.2c.8-2.2 1.7-4.3 2.7-6.4h-1c-.5 1.6-1.1 3.1-1.8 4.6l-2.4-4.3-1 .1h-1c1.2 2 2.4 4 3.5 6h1zm8.8-4.7.4-.9c-.5-.3-1.1-.6-1.7-.6-1.7-.1-2.7.6-2.8 1.7-.2 2.1 3.2 2 3 3.4 0 .6-.7.9-1.4.8-.8 0-1.4-.5-1.4-1.2h-.3c-.1.4-.2.7-.4 1.1.5.3 1.2.5 1.8.6 1.7.2 3-.5 3.2-1.7.2-2-3.3-2.1-3.1-3.4 0-.5.4-.8 1.3-.7.7 0 1 .4 1.2.9h.2z" class="st4"/><path d="M209.4 212.1s-.7.8-1.3.9c-.5 0-1.1-.5-1.1-.5s-.5.5-1 .6c-.6.1-1.4-.6-1.4-.6l-1 1c-.6 0-1.1-.3-1.1-.3s-.3.4-.7.6h-.4l-.6-.4-.7-.7-.5-.3-.4-1v-.5c-.1-.6.8-1.4 2.2-1.7.7-.2 1.3-.2 2 0 .5-.5 1.7-.8 3-.8s2.4.3 3 .7c.9-.5 1.9-.7 2.9-.7 1.3 0 2.5.3 3 .8.5-.2 1.2-.2 2 0 1.4.3 2.3 1 2.2 1.7v.5l-.4 1-.6.3-.6.7-.6.3s-.3.2-.4 0c-.4-.1-.7-.5-.7-.5s-.6.4-1 .2c-.5-.2-1-1-1-1s-.9.8-1.4.7c-.6-.1-1-.6-1-.6s-.7.6-1.2.5-1.2-.9-1.2-.9" class="st2"/><path d="M209.4 212.1s-.7.8-1.3.9c-.5 0-1.1-.5-1.1-.5s-.5.5-1 .6c-.6.1-1.4-.6-1.4-.6l-1 1c-.6 0-1.1-.3-1.1-.3s-.3.4-.7.6h-.4l-.6-.4-.7-.7-.5-.3-.4-1v-.5c-.1-.6.8-1.4 2.2-1.7.7-.2 1.3-.2 2 0 .5-.5 1.7-.8 3-.8s2.4.3 3 .7c.9-.5 1.9-.7 2.9-.7 1.3 0 2.5.3 3 .8.5-.2 1.2-.2 2 0 1.4.3 2.3 1 2.2 1.7v.5l-.4 1-.6.3-.6.7-.6.3s-.3.2-.4 0c-.4-.1-.7-.5-.7-.5s-.6.4-1 .2c-.5-.2-1-1-1-1s-.9.8-1.4.7c-.6-.1-1-.6-1-.6s-.7.6-1.2.5-1.2-.9-1.2-.9z" class="st5"/><path d="M208 208.1c0-1 .6-2 1.3-2 .8 0 1.3 1 1.3 2s-.5 1.8-1.3 1.8c-.7 0-1.3-.8-1.3-1.8" class="st4"/><path d="M208 208.1c0-1 .6-2 1.3-2 .8 0 1.3 1 1.3 2s-.5 1.8-1.3 1.8c-.7 0-1.3-.8-1.3-1.8z" class="st5"/><path d="M208.8 208.1c0-1 .2-1.8.5-1.8.4 0 .7.8.7 1.8s-.3 1.7-.6 1.7c-.4 0-.6-.8-.6-1.8" class="st4"/><path d="M208.8 208.1c0-1 .2-1.8.5-1.8.4 0 .7.8.7 1.8s-.3 1.7-.6 1.7c-.4 0-.6-.8-.6-1.8v.1z" class="st5"/><path d="M202.5 215.8c-.1-.4-.3-.7-.5-1 4.8-1.4 10-1.4 14.8 0l-.6.8c-.1.3-.2.5-.3.8-2.1-.6-4.4-.9-6.6-.8-2.6 0-5.2.3-6.6.8l-.2-.6z" class="st4"/><path d="M202.5 215.8c-.1-.4-.3-.7-.5-1 4.8-1.4 10-1.4 14.8 0l-.6.8c-.1.3-.2.5-.3.8-2.1-.6-4.4-.9-6.6-.8-2.6 0-5.2.3-6.6.8l-.2-.6" class="st5"/><path d="M209.3 218.2c2.4 0 5-.4 5.9-.6.6-.2 1-.5 1-.8 0-.2-.2-.3-.4-.4-2.1-.6-4.3-.8-6.5-.8-2.5 0-5 .3-6.4.8-.2 0-.3.2-.4.3 0 .4.3.7 1 .9 1 .2 3.5.6 5.8.6" class="st4"/><path d="M209.3 218.2c2.4 0 5-.4 5.9-.6.6-.2 1-.5 1-.8 0-.2-.2-.3-.4-.4-2.1-.6-4.3-.8-6.5-.8-2.5 0-5 .3-6.4.8-.2 0-.3.2-.4.3 0 .4.3.7 1 .9 1 .2 3.5.6 5.8.6z" class="st5"/><path d="M215 208.9c0-.2.2-.4.4-.4s.5.2.5.4-.2.4-.5.4-.4-.2-.4-.4" class="st6"/><path d="M215 208.9c0-.2.2-.4.4-.4s.5.2.5.4-.2.4-.5.4-.4-.2-.4-.4zm-.2-1.4c0-.2.2-.4.4-.4s.4.1.4.4-.2.4-.4.4c-.3 0-.4-.2-.4-.4zm-1.1-1c0-.2.2-.3.4-.3s.4.1.4.4c0 .2-.2.4-.4.4s-.4-.2-.4-.4v-.1zm-1.4-.4c0-.2.2-.4.4-.4.3 0 .5.2.5.4s-.2.4-.4.4-.5-.2-.5-.4zm-1.4 0c0-.2.2-.3.5-.3s.4.1.4.4c0 .2-.2.4-.4.4-.2.1-.4-.1-.5-.3v-.2z" class="st12"/><path d="m219.3 211.7.2-1c.1-1.5-1.1-2.7-2.6-2.8h-.1c-.5 0-1 .1-1.3.3" class="st13"/><path d="m214.5 209.7.2-.8c0-1.1-1.1-2-2.5-2-.6 0-1.2.2-1.6.4" class="st5"/><path d="M219.7 210.5c0-.3.2-.5.4-.5s.4.2.4.4c0 .3-.2.4-.4.4s-.4-.1-.4-.4v.1zm-.2-1.6c0-.2.2-.4.4-.4.2-.1.4.1.5.3v.1c0 .2-.2.4-.4.4-.3 0-.5-.2-.5-.4zm-1-1.1c0-.2.2-.4.4-.4h.1c.2 0 .4.1.4.4 0 .2-.2.4-.4.4-.2.1-.4-.1-.5-.3v-.1zm-1.3-.7c0-.2.2-.4.5-.4s.4.2.4.4c0 .3-.2.5-.4.5-.2.1-.4-.1-.5-.3-.1 0-.1-.1 0-.2zm-1.4.1c0-.2.2-.4.5-.4s.4.2.4.4-.2.4-.4.4-.5-.2-.5-.4z" class="st12"/><path d="m216.8 213.7-.5-.5s-.6.3-1.3.2c-.6 0-.9-1-.9-1s-.7.7-1.3.7c-.7 0-1-.6-1-.6s-.7.5-1.3.4c-.6 0-1.2-.8-1.2-.8s-.6.8-1.2.8c-.6.1-1-.5-1-.5s-.3.6-1.1.7-1.4-.6-1.4-.6-.4.7-1 1c-.5 0-1.2-.4-1.2-.4l-.1.5-.3.1.1.5c2.4-.6 4.8-.9 7.3-.9 2.8 0 5.4.4 7.3 1l.2-.6" class="st4"/><path d="m216.8 213.7-.5-.5s-.6.3-1.3.2c-.6 0-.9-1-.9-1s-.7.7-1.3.7c-.7 0-1-.6-1-.6s-.7.5-1.3.4c-.6 0-1.2-.8-1.2-.8s-.6.8-1.2.8c-.6.1-1-.5-1-.5s-.3.6-1.1.7-1.4-.6-1.4-.6-.4.7-1 1c-.5 0-1.2-.4-1.2-.4l-.1.5-.3.1.1.5c2.4-.6 4.8-.9 7.3-.9 2.8 0 5.4.4 7.3 1l.2-.6h-.1z" class="st5"/><path d="M202.8 208.9c0-.2.2-.4.4-.4s.4.2.4.4-.2.4-.4.4-.4-.2-.4-.4" class="st6"/><path d="M202.8 208.9c0-.2.2-.4.4-.4s.4.2.4.4-.2.4-.4.4-.4-.2-.4-.4zm.2-1.4c0-.3.2-.4.4-.4s.5.1.5.4-.2.4-.5.4-.4-.2-.4-.4zm1-1c0-.2.3-.3.5-.3s.5.1.5.4c0 .2-.2.4-.5.4-.2 0-.4-.2-.4-.4v-.1h-.1zm1.4-.4c0-.2.2-.4.5-.4s.4.2.4.4-.2.4-.4.4-.5-.2-.5-.4zm1.4 0c0-.2.2-.3.5-.3.2 0 .4.1.4.4 0 .2-.2.4-.4.4-.2.1-.4-.1-.5-.3v-.2z" class="st12"/><path d="M199.3 211.7c-.1-.3-.2-.7-.2-1-.1-1.5 1.1-2.7 2.6-2.8h.1c.5 0 1 .1 1.4.3" class="st13"/><path d="M204.2 209.7c-.2-.2-.3-.5-.3-.8 0-1 1.2-2 2.6-2 .5 0 1 .1 1.5.4" class="st5"/><path d="M198.1 210.5c0-.3.2-.5.4-.5.3 0 .4.2.4.4s-.2.4-.4.4-.4-.1-.4-.4v.1zm.1-1.6c0-.2.3-.4.5-.4s.4.2.4.4-.2.4-.4.4-.4-.2-.4-.4h-.1zm1-1.1c0-.3.2-.4.5-.4.2 0 .4.2.4.4s-.2.4-.4.4c-.2.1-.4-.1-.5-.3v-.1zm1.3-.7c0-.2.2-.4.5-.4.2 0 .4.2.4.4 0 .3-.2.5-.4.5-.2.1-.4-.1-.5-.3-.1 0-.1-.1 0-.2zm1.4.1c0-.2.2-.4.5-.4.2 0 .4.2.4.4s-.2.4-.4.4c-.3 0-.5-.2-.5-.4z" class="st12"/><path d="M209.4 211.2h.2v.4c0 .6.5 1 1 1s.9-.3 1-.7l.2-.3v.4c.1.5.6.8 1.1.8.6 0 1-.4 1-1v-.1l.4-.4.2.5c-.1.1-.1.3-.1.4 0 .6.4 1 1 1 .4 0 .7-.2.9-.5l.2-.2v.3c0 .3.1.6.4.7 0 0 .4 0 1-.4s.7-.7.7-.7v.4s-.5.8-1 1c-.2.2-.5.4-.8.3-.3 0-.6-.3-.7-.6-.2.1-.5.2-.7.2-.6 0-1.2-.3-1.4-.8-.3.3-.7.5-1.1.5-.5 0-1-.2-1.2-.6-.3.3-.6.4-1 .4-.6 0-1-.2-1.4-.6-.2.4-.7.6-1.2.6-.4 0-.8-.1-1-.4-.3.4-.8.6-1.3.6-.4 0-.8-.2-1.1-.5-.2.5-.8.8-1.4.8-.2 0-.5 0-.7-.2-.1.3-.4.6-.7.6-.3 0-.6 0-.9-.2-.4-.3-.7-.6-1-1l.1-.5.8.7c.5.4.9.4.9.4.3 0 .4-.4.4-.7v-.3l.2.2c.2.3.5.5.9.5.6 0 1-.4 1-1v-.9l.4.4v.1c0 .6.5 1 1 1 .6 0 1-.3 1.1-.9v-.3l.2.3c.2.4.6.7 1 .7.6 0 1.1-.4 1.1-1v-.3l.3-.1" class="st4"/><path d="M209.4 211.2h.2v.4c0 .6.5 1 1 1s.9-.3 1-.7l.2-.3v.4c.1.5.6.8 1.1.8.6 0 1-.4 1-1v-.1l.4-.4.2.5c-.1.1-.1.3-.1.4 0 .6.4 1 1 1 .4 0 .7-.2.9-.5l.2-.2v.3c0 .3.1.6.4.7 0 0 .4 0 1-.4s.7-.7.7-.7v.4s-.5.8-1 1c-.2.2-.5.4-.8.3-.3 0-.6-.3-.7-.6-.2.1-.5.2-.7.2-.6 0-1.2-.3-1.4-.8-.3.3-.7.5-1.1.5-.5 0-1-.2-1.2-.6-.3.3-.6.4-1 .4-.6 0-1-.2-1.4-.6-.2.4-.7.6-1.2.6-.4 0-.8-.1-1-.4-.3.4-.8.6-1.3.6-.4 0-.8-.2-1.1-.5-.2.5-.8.8-1.4.8-.2 0-.5 0-.7-.2-.1.3-.4.6-.7.6-.3 0-.6 0-.9-.2-.4-.3-.7-.6-1-1l.1-.5.8.7c.5.4.9.4.9.4.3 0 .4-.4.4-.7v-.3l.2.2c.2.3.5.5.9.5.6 0 1-.4 1-1v-.9l.4.4v.1c0 .6.5 1 1 1 .6 0 1-.3 1.1-.9v-.3l.2.3c.2.4.6.7 1 .7.6 0 1.1-.4 1.1-1v-.3l.3-.1z" class="st5"/><path d="M209.3 213.8c-2.9 0-5.5.4-7.3 1l-.3-.2.1-.3c2-.6 4.6-1 7.5-1 3 0 5.7.4 7.6 1 0 0 .2.2.1.3l-.3.2c-2.4-.7-4.9-1-7.4-1" class="st4"/><path d="M209.3 213.8c-2.9 0-5.5.4-7.3 1l-.3-.2.1-.3c2-.6 4.6-1 7.5-1 3 0 5.7.4 7.6 1 0 0 .2.2.1.3l-.3.2c-2.4-.7-4.9-1-7.4-1z" class="st5"/><path d="M206.5 214.9c0-.3.2-.4.5-.4.2 0 .4.2.4.4s-.2.4-.4.4c-.3 0-.5-.2-.5-.4" class="st6"/><path d="M206.5 214.9c0-.3.2-.4.5-.4.2 0 .4.2.4.4s-.2.4-.4.4c-.3 0-.5-.2-.5-.4z" class="st5"/><path d="M209.4 215h-1c-.1 0-.3 0-.3-.3l.3-.3h2c.1 0 .2.2.2.3 0 .2-.1.3-.3.3h-.9" class="st2"/><path d="M209.4 215h-1c-.1 0-.3 0-.3-.3l.3-.3h2c.1 0 .2.2.2.3 0 .2-.1.3-.3.3h-.9" class="st5"/><path d="M204.7 215.4h-.6c-.2.1-.3 0-.4-.2 0-.2.1-.3.3-.3l.6-.1.7-.1c.2 0 .3 0 .4.2.1.2 0 .3-.2.4h-.1l-.7.1z" class="st7"/><path d="M204.7 215.4h-.6c-.2.1-.3 0-.4-.2 0-.2.1-.3.3-.3l.6-.1.7-.1c.2 0 .3 0 .4.2.1.2 0 .3-.2.4H204.7" class="st5"/><path d="m202 215.8.3-.4h.7l-.4.6-.6-.2z" class="st2"/><path d="m202 215.8.3-.4h.7l-.4.6-.6-.2" class="st5"/><path d="M211.3 214.9c0-.3.2-.4.4-.4.3 0 .5.1.5.4 0 .2-.2.4-.5.4s-.4-.2-.4-.4" class="st6"/><path d="M211.3 214.9c0-.3.2-.4.4-.4.3 0 .5.1.5.4 0 .2-.2.4-.5.4s-.4-.2-.4-.4z" class="st5"/><path d="M214 215.4h.7c.1 0 .3-.1.3-.2s-.1-.3-.2-.3l-.7-.1-.7-.1c-.2 0-.3 0-.4.2 0 .2.1.3.3.4l.7.1z" class="st7"/><path d="M214 215.4h.7c.1 0 .3-.1.3-.2s-.1-.3-.2-.3l-.7-.1-.7-.1c-.2 0-.3 0-.4.2 0 .2.1.3.3.4h.7" class="st5"/><path d="m216.6 215.9-.2-.5h-.7l.3.6.6-.1z" class="st2"/><path d="m216.6 215.9-.2-.5h-.7l.3.6.6-.1" class="st5"/><path d="M209.3 217.6c-2 0-4-.2-6-.6 2-.5 4-.7 6-.7 2.4 0 4.5.3 6.1.7-1.6.4-3.7.6-6 .6" class="st2"/><path d="M209.3 217.6c-2 0-4-.2-6-.6 2-.5 4-.7 6-.7 2.4 0 4.5.3 6.1.7-1.6.4-3.7.6-6 .6h-.1z" class="st3"/><path d="m216.7 212.5-.1-.3c-.2 0-.3 0-.4.2l.1.4c.2 0 .3 0 .4-.3" class="st4"/><path d="m216.7 212.5-.1-.3c-.2 0-.3 0-.4.2l.1.4c.2 0 .3 0 .4-.3z" class="st5"/><path d="M212.1 211.7c0-.2-.1-.4-.3-.4 0 0-.2.1-.2.3s0 .4.2.4l.3-.3z" class="st4"/><path d="M212.1 211.7c0-.2-.1-.4-.3-.4 0 0-.2.1-.2.3s0 .4.2.4l.3-.3z" class="st5"/><path d="M206.7 211.7c0-.2 0-.4.2-.4l.3.3-.2.4c-.2 0-.3-.2-.3-.3" class="st4"/><path d="M206.7 211.7c0-.2 0-.4.2-.4l.3.3-.2.4c-.2 0-.3-.2-.3-.3z" class="st5"/><path d="m202 212.5.1-.3c.2 0 .3 0 .4.2l-.1.4c-.2 0-.3 0-.4-.3" class="st4"/><path d="m202 212.5.1-.3c.2 0 .3 0 .4.2l-.1.4c-.2 0-.3 0-.4-.3z" class="st5"/><path d="m209.3 209-.8.5.6 1.3.2.1.3-.1.6-1.3-.9-.5z" class="st4"/><path d="m209.3 209-.8.5.6 1.3.2.1.3-.1.6-1.3-.9-.5" class="st5"/><path d="m207.5 211 .4.5 1.3-.4.1-.2-.1-.2-1.3-.3-.4.6z" class="st4"/><path d="m207.5 211 .4.5 1.3-.4.1-.2-.1-.2-1.3-.3-.4.6" class="st5"/><path d="m211.1 211-.3.5-1.3-.4-.1-.2v-.2l1.4-.3.3.6z" class="st4"/><path d="m211.1 211-.3.5-1.3-.4-.1-.2v-.2l1.4-.3.4.6" class="st5"/><path d="m204 209.5-.7.7.9 1 .2.1.2-.1.2-1.3-.8-.4z" class="st4"/><path d="m204 209.5-.7.7.9 1 .2.1.2-.1.2-1.3-.8-.4" class="st5"/><path d="m202.6 211.7.5.5 1.2-.6v-.2l-.1-.2-1.3-.1-.3.6z" class="st4"/><path d="m202.6 211.7.5.5 1.2-.6v-.2l-.1-.2-1.3-.1-.3.6" class="st5"/><path d="m206.2 211-.3.6h-1.3l-.2-.2.1-.3 1.2-.6.5.5z" class="st4"/><path d="m206.2 211-.3.6h-1.3l-.2-.2.1-.3 1.2-.6.5.5" class="st5"/><path d="M201.3 211.9v.6l-1.4.2-.2-.1v-.2l1-.9.6.4z" class="st4"/><path d="M201.3 211.9v.6l-1.4.2-.2-.1v-.2l1-.9.6.4" class="st5"/><path d="M203.9 211.4c0-.3.2-.5.5-.5s.5.2.5.5c0 .2-.3.4-.5.4-.3 0-.5-.2-.5-.4" class="st4"/><path d="M203.9 211.4c0-.3.2-.5.5-.5s.5.2.5.5c0 .2-.3.4-.5.4-.3 0-.5-.2-.5-.4z" class="st5"/><path d="m214.7 209.5.7.7-.9 1-.2.1-.1-.1-.3-1.3.8-.4z" class="st4"/><path d="m214.7 209.5.7.7-.9 1-.2.1-.1-.1-.3-1.3.8-.4" class="st5"/><path d="m216.1 211.7-.5.5-1.2-.6v-.2l.1-.2 1.3-.1.3.6z" class="st4"/><path d="m216.1 211.7-.5.5-1.2-.6v-.2l.1-.2 1.3-.1.3.6" class="st5"/><path d="m212.5 211 .3.6h1.3l.2-.2-.1-.3-1.2-.6-.5.5z" class="st4"/><path d="m212.5 211 .3.6h1.3l.2-.2-.1-.3-1.2-.6-.5.5" class="st5"/><path d="M217.2 211.9v.6l1.4.2.2-.1v-.2l-1-.9-.6.4z" class="st4"/><path d="M217.2 211.9v.6l1.4.2.2-.1v-.2l-1-.9-.6.4" class="st5"/><path d="M208.9 210.9c0-.2.2-.4.5-.4.2 0 .4.2.4.4 0 .3-.2.5-.4.5-.3 0-.5-.2-.5-.5" class="st4"/><path d="M208.9 210.9c0-.2.2-.4.5-.4.2 0 .4.2.4.4 0 .3-.2.5-.4.5-.3 0-.5-.2-.5-.5z" class="st5"/><path d="M213.8 211.4c0-.3.3-.5.5-.5.3 0 .5.2.5.5s-.2.4-.5.4-.5-.2-.5-.4" class="st4"/><path d="M213.8 211.4c0-.3.3-.5.5-.5.3 0 .5.2.5.5s-.2.4-.5.4-.5-.2-.5-.4z" class="st5"/><path d="M208.5 205.9c0-.5.4-.8.8-.8s1 .3 1 .8-.5.8-1 .8-.8-.4-.8-.8" class="st4"/><path d="M210 205.6v.6h-1.5v-.6h.4v-1.3h-.5v-.5h.5v-.6h.6v.6h.6v.6h-.6v1.2h.4" class="st4"/><path d="M210 205.6v.6h-1.5v-.6h.4v-1.3h-.5v-.5h.5v-.6h.6v.6h.6v.6h-.6v1.2h.5z" class="st5"/><path d="M210.5 205.6v.6h-2.4v-.6h1v-1.3h-.7v-.5h.6v-.6h.6v.6h.6v.6h-.6v1.2h1" class="st4"/><path d="M209.6 205.1c.4 0 .6.4.6.8 0 .5-.4.8-.9.8-.4 0-.8-.4-.8-.8s.2-.7.6-.8" class="st5"/><path d="m199.5 212.7-.6-.7c-.2-.1-.5-.2-.7-.3 0-.1.3-.3.6-.3.2 0 .3 0 .4.2v-.2s.3 0 .4.3l-.1 1z" class="st4"/><path d="m199.5 212.7-.6-.7c-.2-.1-.5-.2-.7-.3 0-.1.3-.3.6-.3.2 0 .3 0 .4.2v-.2s.3 0 .4.3l-.1 1z" class="st5"/><path d="M199.5 212.5c.1-.2.4-.2.5 0 .2.1.3.3.1.5l-.5-.1c-.1-.1-.2-.4 0-.5" class="st4"/><path d="M199.5 212.5c.1-.2.4-.2.5 0 .2.1.3.3.1.5l-.5-.1c-.1-.1-.2-.4 0-.5l-.1.1z" class="st5"/><path d="m219 212.7.6-.7c.2-.2.7-.3.7-.3 0-.1-.3-.3-.6-.3-.2 0-.3.1-.4.2v-.2s-.3 0-.4.3v.7l.1.3z" class="st4"/><path d="m219 212.7.6-.7c.2-.2.7-.3.7-.3 0-.1-.3-.3-.6-.3-.2 0-.3.1-.4.2v-.2s-.3 0-.4.3v.7l.1.3z" class="st5"/><path d="M219 212.5c-.1-.2-.3-.2-.5 0-.2.1-.2.3-.1.5l.5-.1c.2-.1.2-.4.1-.5" class="st4"/><path d="M219 212.5c-.1-.2-.3-.2-.5 0-.2.1-.2.3-.1.5l.5-.1c.2-.1.2-.4.1-.5v.1z" class="st5"/><path d="M198.7 223.5h21.4V218h-21.4v5.5z" class="st4"/><path d="M198.7 223.5h21.4V218h-21.4v5.5z" class="st8"/><path d="M217.8 227.3h-16.9c.6-.2 1-.7 1-1.2 0-.6-.4-1.1-1-1.3h17-.1c-.6.2-1 .7-1 1.3 0 .5.4 1 1 1.2" class="st4"/><path d="M217.8 227.3h-16.9c.6-.2 1-.7 1-1.2 0-.6-.4-1.1-1-1.3h17-.1c-.6.2-1 .7-1 1.3 0 .5.4 1 1 1.2z" class="st9"/><path d="M201.4 227.3h16c.6 0 1 .3 1 .7s-.4.8-1 .8h-16c-.6 0-1-.4-1-.8s.5-.8 1-.8" class="st4"/><path d="M201.4 227.3h16c.6 0 1 .3 1 .7s-.4.8-1 .8h-16c-.6 0-1-.4-1-.8s.5-.8 1-.8v.1z" class="st8"/><path d="M201.4 223.5h16c.6 0 1 .4 1 .7 0 .4-.4.6-1 .6h-16c-.6 0-1-.2-1-.6 0-.3.4-.6 1-.7" class="st4"/><path d="M201.4 223.5h16c.6 0 1 .4 1 .7 0 .4-.4.6-1 .6h-16c-.6 0-1-.2-1-.6 0-.3.4-.6 1-.7z" class="st8"/><path d="M194.5 317.9c1.4 0 2.7-.3 3.7-.8 1.2-.5 2.4-.8 3.7-.8 1.4 0 2.8.3 3.8.8s2.3.8 3.7.8c1.5 0 2.8-.3 3.8-.8 1.1-.5 2.4-.8 3.6-.8 1.3 0 2.5.2 3.7.8 1 .5 2.4.8 3.8.8v2.4c-1.3 0-2.6-.3-3.8-.9-1.2-.6-2.4-.8-3.7-.8-1.4 0-2.7.3-3.6.8-1 .5-2.3.9-3.8.9-1.3 0-2.6-.3-3.7-.9-1.2-.6-2.5-.8-3.8-.8-1.3 0-2.5.3-3.7.8-1 .5-2.3.9-3.8.9l.1-2.4" class="st10"/><path d="M194.5 317.9c1.4 0 2.7-.3 3.7-.8 1.2-.5 2.4-.8 3.7-.8 1.4 0 2.8.3 3.8.8s2.3.8 3.7.8c1.5 0 2.8-.3 3.8-.8 1.1-.5 2.4-.8 3.6-.8 1.3 0 2.5.2 3.7.8 1 .5 2.4.8 3.8.8v2.4c-1.3 0-2.6-.3-3.8-.9-1.2-.6-2.4-.8-3.7-.8-1.4 0-2.7.3-3.6.8-1 .5-2.3.9-3.8.9-1.3 0-2.6-.3-3.7-.9-1.2-.6-2.5-.8-3.8-.8-1.3 0-2.5.3-3.7.8-1 .5-2.3.9-3.8.9l.1-2.4z" class="st8"/><path d="M194.5 320.3c1.4 0 2.7-.4 3.7-.9s2.3-.8 3.7-.8c1.4 0 2.8.3 3.8.8s2.3.9 3.7.9c1.3 0 2.6-.3 3.8-.9 1.1-.5 2.4-.8 3.6-.8 1.5 0 2.8.3 3.7.8 1 .5 2.4.9 3.8.9v2.3c-1.3 0-2.6-.3-3.8-.9-1.2-.5-2.4-.8-3.7-.7-1.4 0-2.7.2-3.6.7-1 .5-2.3.9-3.8.9-1.3 0-2.6-.3-3.7-.9-1-.4-2.3-.7-3.8-.7-1.3-.1-2.5.2-3.7.7-1.2.6-2.5.9-3.8.9l.1-2.3" class="st11"/><path d="M194.5 320.3c1.4 0 2.7-.4 3.7-.9s2.3-.8 3.7-.8c1.4 0 2.8.3 3.8.8s2.3.9 3.7.9c1.3 0 2.6-.3 3.8-.9 1.1-.5 2.4-.8 3.6-.8 1.5 0 2.8.3 3.7.8 1 .5 2.4.9 3.8.9v2.3c-1.3 0-2.6-.3-3.8-.9-1.2-.5-2.4-.8-3.7-.7-1.4 0-2.7.2-3.6.7-1 .5-2.3.9-3.8.9-1.3 0-2.6-.3-3.7-.9-1-.4-2.3-.7-3.8-.7-1.3-.1-2.5.2-3.7.7-1.2.6-2.5.9-3.8.9l.1-2.3" class="st8"/><path d="M194.5 322.5c1.4 0 2.7-.2 3.7-.8 1-.4 2.3-.7 3.7-.7 1.4 0 2.8.2 3.8.7s2.3.9 3.7.9c1.3 0 2.6-.3 3.8-.9 1.1-.5 2.4-.8 3.6-.8 1.3 0 2.5.2 3.7.8 1 .5 2.4.9 3.8.9v2.3c-1.3 0-2.6-.3-3.8-.9-1.2-.5-2.4-.8-3.7-.7-1.4 0-2.7.3-3.6.7-1 .6-2.3.9-3.8.9-1.4 0-2.8-.3-3.7-.8-1.2-.6-2.5-.8-3.8-.8-1.3 0-2.5.3-3.7.8-1 .5-2.3.8-3.8.8l.1-2.4" class="st10"/><path d="M194.5 322.5c1.4 0 2.7-.2 3.7-.8 1-.4 2.3-.7 3.7-.7 1.4 0 2.8.2 3.8.7s2.3.9 3.7.9c1.3 0 2.6-.3 3.8-.9 1.1-.5 2.4-.8 3.6-.8 1.3 0 2.5.2 3.7.8 1 .5 2.4.9 3.8.9v2.3c-1.3 0-2.6-.3-3.8-.9-1.2-.5-2.4-.8-3.7-.7-1.4 0-2.7.3-3.6.7-1 .6-2.3.9-3.8.9-1.4 0-2.8-.3-3.7-.8-1.2-.6-2.5-.8-3.8-.8-1.3 0-2.5.3-3.7.8-1 .5-2.3.8-3.8.8l.1-2.4" class="st8"/><path d="M194.5 327.2c1.3 0 2.5-.2 3.7-.8 1-.5 2.3-.8 3.7-.8 1.4 0 2.8.3 3.8.8s2.3.8 3.7.8c1.5 0 2.8-.3 3.8-.9 1.1-.5 2.4-.7 3.6-.7 1.5 0 2.8.3 3.7.8 1.2.6 2.5.8 3.8.8v-2.3c-1.3 0-2.6-.3-3.8-.9-1.2-.5-2.4-.8-3.7-.7-1.4 0-2.7.3-3.6.7-1 .5-2.3.9-3.8.9-1.4 0-2.8-.3-3.7-.8-1.2-.6-2.5-.8-3.8-.8-1.3 0-2.5.3-3.7.8-1 .5-2.3.8-3.8.8l.1 2.3" class="st11"/><path d="M194.5 327.2c1.3 0 2.5-.2 3.7-.8 1-.5 2.3-.8 3.7-.8 1.4 0 2.8.3 3.8.8s2.3.8 3.7.8c1.5 0 2.8-.3 3.8-.9 1.1-.5 2.4-.7 3.6-.7 1.5 0 2.8.3 3.7.8 1.2.6 2.5.8 3.8.8v-2.3c-1.3 0-2.6-.3-3.8-.9-1.2-.5-2.4-.8-3.7-.7-1.4 0-2.7.3-3.6.7-1 .5-2.3.9-3.8.9-1.4 0-2.8-.3-3.7-.8-1.2-.6-2.5-.8-3.8-.8-1.3 0-2.5.3-3.7.8-1 .5-2.3.8-3.8.8l.1 2.3" class="st8"/><path d="M194.5 329.5c1.3 0 2.5-.2 3.7-.8 1-.5 2.3-.8 3.7-.8 1.4 0 2.8.3 3.8.8s2.3.8 3.7.8c1.3 0 2.6-.3 3.8-.9 1.1-.5 2.4-.7 3.6-.7 1.5 0 2.8.3 3.7.8 1 .5 2.4.8 3.8.8v-2.3c-1.3 0-2.6-.2-3.8-.8-1.2-.6-2.4-.8-3.7-.8-1.2 0-2.5.2-3.6.7-1.2.6-2.5.9-3.8.9-1.4 0-2.8-.3-3.7-.8-1-.5-2.3-.8-3.8-.8-1.4 0-2.7.3-3.7.8s-2.3.8-3.8.8l.1 2.3" class="st10"/><path d="M194.5 329.5c1.3 0 2.5-.2 3.7-.8 1-.5 2.3-.8 3.7-.8 1.4 0 2.8.3 3.8.8s2.3.8 3.7.8c1.3 0 2.6-.3 3.8-.9 1.1-.5 2.4-.7 3.6-.7 1.5 0 2.8.3 3.7.8 1 .5 2.4.8 3.8.8v-2.3c-1.3 0-2.6-.2-3.8-.8-1.2-.6-2.4-.8-3.7-.8-1.2 0-2.5.2-3.6.7-1.2.6-2.5.9-3.8.9-1.4 0-2.8-.3-3.7-.8-1-.5-2.3-.8-3.8-.8-1.4 0-2.7.3-3.7.8s-2.3.8-3.8.8l.1 2.3z" class="st8"/><path d="m217.8 308.5-.1.5c0 1.5 1.2 2.6 2.7 2.6h-22c1.5 0 2.7-1.2 2.7-2.6l-.1-.5h16.8z" class="st4"/><path d="m217.8 308.5-.1.5c0 1.5 1.2 2.6 2.7 2.6h-22c1.5 0 2.7-1.2 2.7-2.6l-.1-.5h16.8z" class="st9"/><path d="M201.4 307h16c.6 0 1 .3 1 .8 0 .4-.4.7-1 .7h-16c-.6 0-1-.3-1-.8 0-.4.5-.7 1-.7" class="st4"/><path d="M201.4 307h16c.6 0 1 .3 1 .8 0 .4-.4.7-1 .7h-16c-.6 0-1-.3-1-.8 0-.4.5-.7 1-.7z" class="st8"/><path d="M198.4 317.2h22v-5.7h-22v5.7z" class="st4"/><path d="M198.4 317.2h22v-5.7h-22v5.7z" class="st8"/><path d="M222.1 287.2c2.1 1.2 3.6 2.5 3.4 3.2-.1.6-.8 1-1.8 1.6-1.6 1.1-2.5 3-1.8 4a5.44 5.44 0 0 1-.9-7.7c.3-.4.6-.8 1.1-1.1" class="st2"/><path d="M222.1 287.2c2.1 1.2 3.6 2.5 3.4 3.2-.1.6-.8 1-1.8 1.6-1.6 1.1-2.5 3-1.8 4a5.44 5.44 0 0 1-.9-7.7c.3-.4.6-.8 1.1-1.1z" class="st8"/><path d="M201.6 306.1h15.6v-76.6h-15.6v76.6z" class="st11"/><path d="M212.9 229.6v76.3m1.8-76.3v76.3m-13 .2h15.5v-76.6h-15.6V306l.1.1z" class="st8"/><path d="M185.7 258.2a49.8 49.8 0 0 1 23.3-2c9.3 1.6 16.4 5.3 15.9 8.4v.2l3.5-8.2c.6-3.3-7.3-7.5-17.6-9.2-3-.5-6.1-.7-9.2-.7-6.7 0-12.4.8-15.9 2.1v9.4z" class="st2"/><path d="M185.7 258.2a49.8 49.8 0 0 1 23.3-2c9.3 1.6 16.4 5.3 15.9 8.4v.2l3.5-8.2c.6-3.3-7.3-7.5-17.6-9.2-3-.5-6.1-.7-9.2-.7-6.7 0-12.4.8-15.9 2.1v9.4" class="st9"/><path d="M217.2 267.8c4.4-.3 7.3-1.4 7.7-3.2.2-1.5-1.2-3-3.8-4.5-1.2.1-2.5.3-3.9.3v7.4z" class="st2"/><path d="M217.2 267.8c4.4-.3 7.3-1.4 7.7-3.2.2-1.5-1.2-3-3.8-4.5-1.2.1-2.5.3-3.9.3v7.4" class="st8"/><path d="M201.5 262c-2 .2-4 .8-5.7 1.9v.2c-.5 1 1.8 3 5.8 5.4l-.1-7.5" class="st2"/><path d="M201.5 262c-2 .2-4 .8-5.7 1.9v.2c-.5 1 1.8 3 5.8 5.4l-.1-7.5" class="st8"/><path d="M226.9 282.5c.4-1.2-3.8-3.6-9.7-5.8-2.8-1-5-2-7.8-3.2-8.3-3.7-14.4-7.9-13.6-9.4v-.2c-.4.4-1 8-1 8-.8 1.3 4.8 5.5 12.4 9.1 2.4 1.2 7.6 3 10 4 4.3 1.4 8.7 4.3 8.3 5.3l1.4-7.8" class="st2"/><path d="M226.9 282.5c.4-1.2-3.8-3.6-9.7-5.8-2.8-1-5-2-7.8-3.2-8.3-3.7-14.4-7.9-13.6-9.4v-.2c-.4.4-1 8-1 8-.8 1.3 4.8 5.5 12.4 9.1 2.4 1.2 7.6 3 10 4 4.3 1.4 8.7 4.3 8.3 5.3l1.4-7.8z" class="st9"/><path d="M195.4 254.9c.6-2.3 1.4-4.4 2.1-6.6h-.5c-.2 0-.3.1-.5.1-.4 1.6-.9 3.2-1.4 4.8-1-1.4-2-2.7-2.7-4.1l-1 .2h-1c1.4 1.9 2.7 3.8 4 5.7h.5l.5-.1zm6-6.6h-1.8v6.2h4.2v-.7h-2.6l.2-5.5zm6.8 1 2 .3v-.7l-5.8-.5v.8h2l-.4 5.6h1.6l.5-5.4m2.4 6c.3 0 .5 0 .8.2l.8.2.7-2.9.6 1.2.8 2.1 1 .2c.4 0 .7.2 1 .3l-.3-.7c-.4-1-1-1.9-1.3-2.9 1 0 1.9-.3 2.1-1.2.1-.6 0-1-.7-1.5-.4-.3-1.2-.4-1.7-.5l-2.4-.5-1.4 6zm3-5.2c.7.2 1.5.3 1.5 1v.5c-.3.9-1 1.2-2 .9l.5-2.4zm8 7-.2 2 .8.5.9.5.5-7c-.2-.1-.5-.2-.7-.3l-6.1 3.8.5.3.4.2 1.7-1.2 2.3 1.3-.1-.1zm-1.7-1.5 2-1.4-.2 2.3-1.8-.9z" class="st4"/><path d="M113.7 192.9c0-1 1-2 2-2s2.2 1 2.2 2c0 1.1-1 2-2.1 2-1.1.1-2-.8-2.1-1.9v-.1z" class="st14"/><path d="M137.2 175.9c6.3 0 12 1 15.7 2.4 4.6 1.9 9.6 2.7 14.6 2.3 2.7 0 6.5.8 10.3 2.4 2.7 1.2 5.2 2.7 7.4 4.7l-1.5 1.4-.4 3.8-4.1 4.7-2 1.8-5 3.9-2.5.2-.7 2.1-31.6-3.7-31.7 3.7-.8-2.1-2.5-.2-4.9-4-2-1.7-4.1-4.7-.5-3.8-1.5-1.4c2.2-2 4.8-3.5 7.5-4.7 3.2-1.5 6.7-2.3 10.2-2.4 2 .2 4.2.1 6.6-.2 2.7-.3 5.4-1 8-2 3.7-1.5 9-2.5 15.5-2.5z" style="fill:#ad1519;stroke:#000;stroke-width:.3"/><path d="M137.7 217.6c-11.8 0-22.4-1.4-29.9-3.6-.5-.1-.9-.7-.8-1.2 0-.5.3-1 .8-1.2 9.8-2.6 19.8-3.8 29.9-3.6 11.7 0 22.3 1.4 29.8 3.6.7.3 1 1 .7 1.7-.1.3-.4.6-.7.7-7.5 2.2-18 3.6-29.8 3.6" class="st16"/><path d="M137.6 216.1c-10.6 0-20.2-1.2-27.5-3.1 7.3-2 16.9-3 27.5-3.1 9.3-.1 18.6.9 27.6 3-7.3 2-17 3.2-27.6 3.2" class="st2"/><path d="M138.4 216.2v-6.3m-1.7 6.3v-6.3" class="st14"/><path d="M135.1 216.2v-6.3m-1.6 6.3v-6.3" class="st12"/><path d="M132.1 216.2v-6.3m-2.8 5.9v-5.7m1.3 5.8v-6m-3.8 5.6v-5.2m1.3 5.4v-5.6" class="st5"/><path d="M123.5 215.3v-4.8m1 4.7v-4.7m1.2 5v-5m-3.4 4.7v-4.5" class="st8"/><path d="M121.2 215v-4.2m-1.2 4.1v-4" class="st17"/><path d="M117.5 214.5v-3m1.3 3.2v-3.5m-2.5 3.1v-2.8" class="st18"/><path d="M115.2 214.1v-2.3m-1.3 2V212m-1.2 1.6v-1.3" style="fill:none;stroke:#000;stroke-width:.7"/><path d="M111.3 213.3v-.7" style="fill:none;stroke:#000;stroke-width:.9"/><path d="M145.2 215.8V210m-2.9 6v-6.1m-2.1 6.2v-6.3" class="st14"/><path d="M137.5 207.9c-10.1-.1-20.2 1.2-30 3.9.6-.3.5-1-.3-3-1-2.5-2.4-2.4-2.4-2.4 8.3-2.5 20-4 32.8-4 11.1-.2 22.2 1.2 33 4 0 0-1.5-.1-2.5 2.3-.8 2-.8 2.8-.2 3-7.5-2.2-18.4-3.7-30.3-3.7" class="st16"/><path d="M137.6 202.4c-12.9 0-24.5 1.5-32.8 4-.5.2-1.1-.1-1.3-.6-.2-.5.1-1.1.6-1.3h.1c10.9-2.9 22.1-4.4 33.4-4.2 13.2 0 25.2 1.7 33.5 4.2.6.2.9.8.7 1.3s-.8.8-1.3.6c-8.4-2.5-20-4-32.9-4" class="st16"/><path d="M137.6 216.1c-10.6 0-20.2-1.2-27.5-3.1 7.3-2 16.9-3 27.5-3.1 9.3-.1 18.6.9 27.6 3-7.3 2-17 3.2-27.6 3.2z" class="st9"/><path d="M128.5 205.3c0-.5.4-1 1-1 .5 0 1 .5 1 1s-.4 1-1 1-1-.4-1-1" class="st21"/><path d="M137.6 206.1h-3.1c-.6 0-1-.4-1-1s.4-1 1-1h6.4c.5 0 1 .5 1 1s-.5 1-1 1h-3.3" class="st22"/><path d="m121.8 207-2.3.2c-.6.1-1-.3-1.2-.8-.1-.5.3-1 .9-1.1h.1l2.2-.3 2.4-.3c.5 0 1 .3 1.1.9.1.5-.3 1-.9 1l-2.3.4" class="st23"/><path d="M112.5 207.2c0-.6.5-1 1.1-1s1 .4 1 1c0 .5-.4 1-1 1s-1-.4-1-1" class="st21"/><path d="m105.5 209 1.2-1.6 3.3.4-2.6 2-1.9-.8" class="st22"/><path d="m153.5 207 2.3.2c.5.1 1-.3 1.1-.8.1-.5-.3-1-.9-1.1l-2.2-.3-2.4-.3c-.5-.1-1 .3-1.1.9-.1.5.3 1 .9 1l2.3.4" class="st23"/><path d="M144.8 205.3c0-.5.4-1 1-1s1 .5 1 1-.4 1-1 1-1-.4-1-1m15.8 1.9c0-.6.5-1 1-1 .6 0 1.1.4 1.1 1 0 .5-.4 1-1 1s-1-.4-1-1" class="st21"/><path d="m169.7 209-1.1-1.6-3.3.4 2.6 2 1.8-.8" class="st22"/><path d="M108.8 213.3c7.4-2.1 17.6-3.4 28.8-3.4 11.3 0 21.4 1.3 28.9 3.4" class="st8"/><path d="m113.8 184.3 1.4 1 2-3.2a7.49 7.49 0 0 1-3.6-7.2c.2-4.1 5.2-7.6 11.7-7.6 3.3 0 6.3 1 8.5 2.4 0-.6 0-1.2.2-1.8-2.7-1.4-5.7-2.2-8.7-2.1-7.4 0-13.2 4.1-13.5 9.1-.3 2.9.8 5.7 3 7.6l-1 1.8z" class="st4"/><path d="m113.8 184.3 1.4 1 2-3.2a7.49 7.49 0 0 1-3.6-7.2c.2-4.1 5.2-7.6 11.7-7.6 3.3 0 6.3 1 8.5 2.4 0-.6 0-1.2.2-1.8-2.7-1.4-5.7-2.2-8.7-2.1-7.4 0-13.2 4.1-13.5 9.1-.3 2.9.8 5.7 3 7.6l-1 1.8" class="st8"/><path d="M113.9 184.3a9.4 9.4 0 0 1-4-7.3c0-3.2 2-6.1 5.3-8a8.57 8.57 0 0 0-3.4 6.8c0 2.6 1.1 5 3 6.7l-.9 1.8z" class="st4"/><path d="M113.9 184.3a9.4 9.4 0 0 1-4-7.3c0-3.2 2-6.1 5.3-8a8.57 8.57 0 0 0-3.4 6.8c0 2.6 1.1 5 3 6.7l-.9 1.8" class="st8"/><path d="M91.6 187.6a8.58 8.58 0 0 1-2.3-5.9c0-1.3.3-2.6 1-3.8 2-4.2 8.4-7.2 16-7.2 2 0 4 .2 5.9.6l-1 1.4a27 27 0 0 0-4.9-.4c-7 0-12.8 2.7-14.5 6.3a7.21 7.21 0 0 0 2 8.7l-2.6 4.1-1.3-1 1.7-2.8z" class="st4"/><path d="M91.6 187.6a8.58 8.58 0 0 1-2.3-5.9c0-1.3.3-2.6 1-3.8 2-4.2 8.4-7.2 16-7.2 2 0 4 .2 5.9.6l-1 1.4a27 27 0 0 0-4.9-.4c-7 0-12.8 2.7-14.5 6.3a7.21 7.21 0 0 0 2 8.7l-2.6 4.1-1.3-1 1.7-2.8z" class="st8"/><path d="M94.2 173.8c-1.7 1-3.1 2.4-4 4.1-.6 1.2-.9 2.5-.9 3.8 0 2.3.9 4.3 2.3 5.9l-1.5 2.5c-1.5-1.8-2.3-4.1-2.3-6.5 0-4 2.5-7.5 6.4-9.8" class="st4"/><path d="M94.2 173.8c-1.7 1-3.1 2.4-4 4.1-.6 1.2-.9 2.5-.9 3.8 0 2.3.9 4.3 2.3 5.9l-1.5 2.5c-1.5-1.8-2.3-4.1-2.3-6.5 0-4 2.5-7.5 6.4-9.8z" class="st8"/><path d="M137.5 164.9c1.7 0 3.2 1.1 3.5 2.6.3 1.4.4 2.9.4 4.5v1.1c.1 3.3.6 6.3 1.3 8.1l-5.2 5-5.2-5c.7-1.8 1.2-4.8 1.3-8.1V172c0-1.6.2-3.1.4-4.5.3-1.5 1.8-2.6 3.5-2.6" class="st4"/><path d="M137.5 164.9c1.7 0 3.2 1.1 3.5 2.6.3 1.4.4 2.9.4 4.5v1.1c.1 3.3.6 6.3 1.3 8.1l-5.2 5-5.2-5c.7-1.8 1.2-4.8 1.3-8.1V172c0-1.6.2-3.1.4-4.5.3-1.5 1.8-2.6 3.5-2.6z" class="st8"/><path d="M137.5 166.5c1 0 1.7.6 1.8 1.4.2 1.2.4 2.6.4 4.2v1c.1 3.2.6 6 1.2 7.7l-3.4 3.2-3.4-3.2c.7-1.7 1.1-4.5 1.2-7.7v-1c0-1.4.2-2.8.4-4.2.2-.8.9-1.4 1.8-1.4" class="st4"/><path d="M137.5 166.5c1 0 1.7.6 1.8 1.4.2 1.2.4 2.6.4 4.2v1c.1 3.2.6 6 1.2 7.7l-3.4 3.2-3.4-3.2c.7-1.7 1.1-4.5 1.2-7.7v-1c0-1.4.2-2.8.4-4.2.2-.8.9-1.4 1.8-1.4z" class="st8"/><path d="m161.2 184.3-1.3 1-2-3.2c2.2-1.3 3.6-3.7 3.6-6.3v-.9c-.2-4.1-5.3-7.6-11.7-7.6-3-.1-6 .8-8.5 2.4 0-.6-.1-1.2-.2-1.8 2.7-1.4 5.7-2.2 8.7-2.1 7.4 0 13.2 4.1 13.4 9.1.3 2.9-.8 5.7-3 7.6l1 1.8z" class="st4"/><path d="m161.2 184.3-1.3 1-2-3.2c2.2-1.3 3.6-3.7 3.6-6.3v-.9c-.2-4.1-5.3-7.6-11.7-7.6-3-.1-6 .8-8.5 2.4 0-.6-.1-1.2-.2-1.8 2.7-1.4 5.7-2.2 8.7-2.1 7.4 0 13.2 4.1 13.4 9.1.3 2.9-.8 5.7-3 7.6l1 1.8" class="st8"/><path d="M161.1 184.3c2.5-1.6 4-4.3 4.1-7.3 0-3.2-2.1-6.1-5.3-8 2.1 1.6 3.4 4.1 3.4 6.8 0 2.6-1.2 5-3.2 6.7l1 1.8z" class="st4"/><path d="M161.1 184.3c2.5-1.6 4-4.3 4.1-7.3 0-3.2-2.1-6.1-5.3-8 2.1 1.6 3.4 4.1 3.4 6.8 0 2.6-1.2 5-3.2 6.7l1 1.8" class="st8"/><path d="M183.5 187.6c1.4-1.6 2.2-3.7 2.2-5.9 0-1.3-.3-2.6-.9-3.8-2-4.2-8.4-7.2-16-7.2-2 0-4 .2-6 .6l1 1.4c1.6-.3 3.3-.4 5-.4 7 0 12.8 2.7 14.4 6.3.5 1 .7 2 .7 3.1 0 2.2-.9 4.2-2.6 5.6l2.5 4.1 1.3-1-1.6-2.8z" class="st4"/><path d="M183.5 187.6c1.4-1.6 2.2-3.7 2.2-5.9 0-1.3-.3-2.6-.9-3.8-2-4.2-8.4-7.2-16-7.2-2 0-4 .2-6 .6l1 1.4c1.6-.3 3.3-.4 5-.4 7 0 12.8 2.7 14.4 6.3.5 1 .7 2 .7 3.1 0 2.2-.9 4.2-2.6 5.6l2.5 4.1 1.3-1-1.6-2.8z" class="st8"/><path d="M180.8 173.8c1.7 1 3.1 2.4 4 4.1a8.58 8.58 0 0 1-1.4 9.7l1.6 2.5c1.5-1.8 2.3-4.1 2.3-6.5 0-4-2.6-7.5-6.5-9.8" class="st4"/><path d="M180.8 173.8c1.7 1 3.1 2.4 4 4.1a8.58 8.58 0 0 1-1.4 9.7l1.6 2.5c1.5-1.8 2.3-4.1 2.3-6.5 0-4-2.6-7.5-6.5-9.8z" class="st8"/><path d="M135.7 181.9c0-1 .8-1.8 1.8-1.8s1.9.8 1.9 1.8-.9 1.7-1.9 1.7c-1 0-1.8-.7-1.8-1.7" class="st6"/><path d="M135.7 181.9c0-1 .8-1.8 1.8-1.8s1.9.8 1.9 1.8-.9 1.7-1.9 1.7c-1 0-1.8-.7-1.8-1.7z" class="st8"/><path d="M135.7 178.5c0-1 .8-1.8 1.8-1.8s1.9.8 1.9 1.8-.9 1.7-1.9 1.7c-1 0-1.8-.7-1.8-1.7m.4-3.7c0-.7.6-1.3 1.4-1.3.8 0 1.5.6 1.5 1.3 0 .8-.7 1.4-1.5 1.4s-1.4-.6-1.4-1.4m.4-3.3c0-.5.4-1 1-1s1 .5 1 1-.4 1-1 1-1-.4-1-1m.2-2.8c0-.5.4-.8.8-.8.5 0 .9.3.9.8 0 .4-.4.8-.9.8s-.8-.4-.8-.8" class="st21"/><path d="m137.7 192.3 1.2.2c-.8 2.4.6 5 3 5.8.5.2 1 .2 1.5.2 1.9 0 3.7-1.2 4.4-3 .1 0 .5-1.7.7-1.7s.1 1.8.2 1.7c.3 2.3 2.4 3.8 4.7 3.8 2.5.1 4.7-1.9 4.7-4.5v-.5l1.5-1.5.7 2c-.3.6-.4 1.2-.4 1.9.1 2.4 2.1 4.3 4.5 4.2 1.6 0 3-.7 3.8-1.9l.9-1.2v1.5c0 1.5.6 2.8 2 3 0 0 1.7.1 4-1.6 2.1-1.7 3.3-3.1 3.3-3.1l.2 1.7s-1.8 2.8-3.8 4c-1 .6-2.7 1.3-4 1-1.4-.2-2.4-1.3-3-2.6a6.53 6.53 0 0 1-9.4-2.7 6.97 6.97 0 0 1-9.9.2l-.5-.5a6.84 6.84 0 0 1-10.3-1.2c-1.3 1.9-3.4 3-5.7 3-1.7 0-3.4-.6-4.7-1.8a7.08 7.08 0 0 1-9.9.8c-.2-.2-.4-.3-.5-.5a6.38 6.38 0 0 1-6 3.7c-1.2 0-2.4-.4-3.4-1-.6 1.3-1.5 2.4-3 2.7-1.2.2-2.9-.5-4-1.1-2-1.2-3.8-4-3.8-4l.2-1.7s1.2 1.4 3.4 3.1c2.2 1.8 3.9 1.6 3.9 1.6 1.4-.2 2-1.5 2-3v-1.5l1 1.2c.8 1.2 2.2 2 3.7 2a4.44 4.44 0 0 0 4.1-6.3l.8-1.9 1.5 1.5v.6c0 2.4 2 4.4 4.6 4.4 2.4 0 4.4-1.5 4.7-3.8 0 0 0-1.6.2-1.7.2 0 .6 1.7.7 1.6.7 1.9 2.5 3.1 4.5 3.1 2.5.1 4.7-1.9 4.7-4.5 0-.5-.1-1-.2-1.5l1.2-.2" class="st16"/><path d="M170.1 198.2c.3-.8 0-1.6-.6-1.8-.5-.2-1.2.3-1.5 1.1s0 1.6.6 1.8c.5.2 1.2-.3 1.5-1.1m-20.5-4c0-.8-.3-1.6-1-1.6-.5-.1-1 .5-1.2 1.4-.1.8.3 1.5.9 1.6.6 0 1.2-.6 1.3-1.4m-23.9 0c0-.8.4-1.6 1-1.6.6-.1 1.1.5 1.2 1.4.1.8-.3 1.5-.9 1.6-.6 0-1.1-.6-1.2-1.4m-20.6 4c-.2-.8 0-1.6.6-1.8s1.2.3 1.5 1.1 0 1.6-.5 1.8c-.6.2-1.3-.3-1.6-1.1" class="st21"/><path d="M114.2 184.5c1.1.7 1.8 1.7 2.2 2.9 0 0 0-.3.6-.6s1-.3 1-.3l-.1 1.3-.3 2.2c-.2.6-.4 1.1-.7 1.6-.4-.3-1-.5-1.5-.4-.5.1-1 .4-1.2.9 0 0-.7-.6-1.2-1.3l-1.1-2-.7-1.1s.5-.2 1.1 0c.6 0 .8.2.8.2-.1-1.2.2-2.4 1.1-3.4m.3 9.8c-.3-.3-.5-.6-.6-1 0-.5 0-.9.3-1.2 0 0-.9-.5-1.8-.7-.7-.2-2-.2-2.3-.2h-1l.2.5c.2.5.5.7.5.7-1.2.3-2.3 1-3 2 1 .7 2.3 1.1 3.5 1l-.2.8v.6l1-.4c.3-.1 1.5-.5 2-1 .8-.4 1.5-1.1 1.4-1.1m2.8-.5c.2-.3.3-.7.2-1.1-.1-.4-.3-.7-.6-1l1.4-1.3c.6-.4 1.3-.7 2-.9l1.1-.4v.6c0 .3-.1.5-.2.8 1.2-.1 2.4.3 3.4 1-.7 1-1.7 1.7-2.9 2 .2.4.4.8.7 1.2h-1c-.4 0-1.6 0-2.3-.2-.6-.2-1.3-.4-1.8-.7" class="st16"/><path d="M113.7 192.9c0-1 1-2 2-2s2.2 1 2.2 2c0 1.1-1 2-2.1 2-1.1.1-2-.8-2.1-1.9v-.1" class="st22"/><path d="M137.6 181.3c1.1.9 1.8 2.3 1.9 3.7 0 0 .2-.3.9-.5.7-.3 1.2-.2 1.2-.2l-.5 1.4-.8 2.4c-.3.6-.6 1.2-1 1.7-.4-.5-1.1-.7-1.7-.7-.6 0-1.2.3-1.6.7 0 0-.6-.7-1-1.7l-.8-2.4-.5-1.4 1.2.2c.7.2.9.5.9.5 0-1.4.8-2.8 1.8-3.7" class="st16"/><path d="M136.1 192.3c-.3-.3-.5-.8-.5-1.2 0-.5.1-1 .4-1.3 0 0-.8-.7-1.8-1-.7-.4-2-.7-2.5-.7l-1.2-.2.2.6.4.9c-1.4.1-2.7.7-3.7 1.7 1 .9 2.3 1.6 3.7 1.6l-.4 1-.2.6 1.2-.2c.4-.1 1.8-.4 2.5-.7 1-.4 1.9-1 1.9-1m3 0c.7-.7.8-1.8.1-2.6 0 0 .9-.7 1.8-1 .8-.4 1.6-.6 2.5-.7l1.2-.3-.1.7-.4.9c1.4 0 2.7.8 3.6 1.7-1 .9-2.3 1.5-3.6 1.6.1.6.3 1.1.5 1.6l-1.2-.2-2.5-.7c-1-.4-1.8-1-1.8-1m22-8c-1.1.7-1.9 1.8-2.2 3l-.7-.6c-.6-.3-1-.3-1-.3l.2 1.3c0 .3 0 1.3.3 2.2.2 1 .6 1.6.6 1.6.4-.3 1-.5 1.5-.4.6.1 1 .5 1.3.9l1.1-1.3c.6-.8 1-1.7 1.1-2l.7-1.1s-.4-.2-1 0c-.7 0-1 .2-1 .2.1-1.2-.3-2.4-.9-3.5m-.4 9.9c.3-.3.5-.6.6-1 .1-.4 0-.8-.2-1.2 0 0 .8-.5 1.7-.7.7-.2 2-.2 2.3-.2h1.1l-.3.5c-.1.2-.3.5-.4.7 1.2.3 2.2 1 2.9 2-1 .7-2.3 1.1-3.5 1l.2.8v.6l-1-.4c-.3-.1-1.4-.5-2-1-.8-.4-1.4-1.1-1.4-1.1m-2.8-.5c-.2-.3-.3-.7-.2-1.1 0-.5.3-.8.6-1 0 0-.6-.8-1.4-1.3-.6-.4-1.7-.8-2-.9-.3-.1-.7-.3-1-.4v.6c0 .5.2.8.2.8-1.2-.1-2.5.3-3.5 1 .7.9 1.7 1.7 3 2 0 0-.3.2-.5.7l-.3.5h1c.4 0 1.7 0 2.3-.2.6-.2 1.2-.4 1.8-.7" class="st16"/><path d="M157.5 192.9c0-1 1-2 2-2s2.1 1 2.1 2a2 2 0 0 1-2 2c-1.1.1-2-.8-2.1-1.9v-.1m23.2 4.4c-.4-.5-1.4-.4-2.2.2-.8.7-1 1.6-.5 2.2.5.5 1.5.4 2.3-.3.7-.6 1-1.6.5-2" class="st22"/><path d="m177.8 198.5.7-1c.7-.6 1.8-.7 2.3-.2l.1.2s1-2 2.3-2.6c1.3-.7 3.4-.5 3.4-.5 0-1.5-1.3-2.8-2.8-2.8h-.1c-.9 0-1.8.3-2.4 1l-.2-1s-1.3.3-1.9 1.8c-.6 1.5 0 3.6 0 3.6s-.3-.9-.7-1.5c-.7-.7-1.5-1.2-2.4-1.6l-1.3-.7-.1.5v.8c-1.3-.1-2.5 0-3.7.5.5 1 1.4 1.8 2.5 2.2l-.8.7c-.1.2-.3.3-.4.5l1.3.2 2.5.2c.5 0 1.1-.1 1.7-.3m-80.3.1c0-.4-.3-.7-.7-1-.7-.7-1.7-.8-2.2-.3l-.2.3s-1-2-2.3-2.7c-1.2-.7-3.3-.5-3.3-.5 0-1.5 1.3-2.8 2.8-2.8 1 0 1.9.4 2.4 1l.2-1s1.3.3 2 1.8c.5 1.5-.1 3.6-.1 3.6s.3-.9.8-1.5c.7-.7 1.5-1.2 2.4-1.6l1.3-.7v1.3c1.3-.1 2.5 0 3.7.5-.5 1-1.4 1.8-2.5 2.2l.8.7.4.5-1.2.2-2.6.2c-.6 0-1.2-.1-1.7-.2" class="st16"/><path d="M94.5 197.3c.6-.5 1.6-.4 2.4.3.7.6 1 1.5.4 2-.5.6-1.5.5-2.2-.2-.8-.6-1-1.6-.5-2m41-6.3c0-1.1.9-2 2-2s2.1.9 2.1 2c0 1-1 2-2 2-1.1.1-2-.8-2.1-1.9v-.1" class="st22"/><path d="M133.3 161.1c0-2.2 1.9-4 4.3-4s4.2 1.8 4.2 4-1.9 4-4.3 4a4 4 0 0 1-4.2-4" style="fill:#005bbf;stroke:#000;stroke-width:.3"/><path d="M136.5 149.8v2.2h-2.4v2.2h2.3v6.3h-2.9l-.2.6c0 .6.1 1.1.3 1.6h7.9c.2-.5.3-1 .3-1.6l-.2-.6h-2.8v-6.3h2.3V152h-2.3v-2.2h-2.3z" style="fill:#c8b100;stroke:#000;stroke-width:.3"/><path d="M138 331.1c-12.3 0-24.4-2.8-35.5-8.2a22.72 22.72 0 0 1-12.8-20.4v-32h96.4v32c0 8.7-5 16.6-12.8 20.4-11 5.4-23.1 8.2-35.3 8.2" class="st11"/><path d="M138 331.1c-12.3 0-24.4-2.8-35.5-8.2a22.72 22.72 0 0 1-12.8-20.4v-32h96.4v32c0 8.7-5 16.6-12.8 20.4-11 5.4-23.1 8.2-35.3 8.2z" class="st17"/><path d="M137.8 270.5h48.3V217h-48.3v53.5z" class="st11"/><path d="M137.8 270.5h48.3V217h-48.3v53.5z" class="st17"/><path d="M137.8 302.5c0 12.6-10.7 22.9-24 22.9s-24.2-10.3-24.2-23v-32h48.2v32.1" class="st2"/><path d="M100.1 321.4c1.5.8 3.6 2 5.8 2.6l-.1-54.7h-5.7v52.1z" class="st26"/><path d="M89.5 302.1c.1 5.5 2 10.8 5.5 15v-47.5h-5.4l-.1 32.5z" style="fill:#c8b100;stroke:#000;stroke-width:.5;stroke-linejoin:round"/><path d="M110.9 325.2c1.9.2 3.7.2 5.6 0v-55.9h-5.6v56-.1z" style="fill:#c7b500;stroke:#000;stroke-width:.5"/><path d="M121.5 324c2.1-.5 4-1.3 5.8-2.5v-52.2h-5.8V324z" class="st26"/><path d="M89.6 270.5h48.2V217H89.5l.1 53.5z" class="st2"/><path d="M89.6 270.5h48.2V217H89.5l.1 53.5z" class="st17"/><path d="M132.5 316.5c2.4-2 4.6-6.8 5.4-12.2l.1-35h-5.5l.1 47.3-.1-.1z" class="st26"/><path d="M137.8 302.5c0 12.6-10.7 22.9-24 22.9s-24.2-10.3-24.2-23v-32h48.2v32.1" class="st17"/><path d="M186.1 270.5v32c0 12.6-10.8 22.9-24.1 22.9s-24.2-10.3-24.2-23v-32l48.3.1" class="st2"/><path d="M186.1 270.5v32c0 12.6-10.8 22.9-24.1 22.9s-24.2-10.3-24.2-23v-32l48.3.1" class="st17"/><path d="m146.6 294.6.1.5c0 .6-.5 1-1.1 1-.5.1-1-.3-1.1-.9v-.6H143c-.3 1.3.5 2.6 1.8 2.9v3.9h1.6v-3.9c.8-.2 1.4-.8 1.7-1.6h4.4v-1.2l-5.9-.1zm21.8 0v1.2h-4l-.3.6 4.6 5.2-1.2 1-4.6-5.3-.2.1v8.7h-1.6v-8.6h-.2l-4.8 5.2-1.2-1 4.7-5.3c-.1-.1-.1-.3-.2-.4h-4v-1.5h13v.1zm2.6 0v1.2h4.4c.3.8.9 1.4 1.7 1.6v3.9h1.6v-3.8c1.1-.3 1.8-1.3 1.8-2.4v-.5h-1.6l.1.5c0 .6-.5 1-1 1-.7 0-1.2-.4-1.2-1 0-.2 0-.3.1-.5H171zm-6.7 22.1c1.3-.2 2.5-.5 3.7-1l.8 1.4c-1.4.6-2.8 1-4.3 1.2-.3 1.2-1.4 2-2.6 2-1.2 0-2.2-.8-2.5-2-1.6-.2-3.1-.6-4.6-1.2l.8-1.4c1.3.5 2.6.9 4 1 .3-.6.8-1.1 1.5-1.3v-6.7h1.6v6.7c.7.2 1.3.7 1.6 1.4v-.1zm-11-2.2-.8 1.4c-1.3-.9-2.6-1.9-3.6-3.1-.9.2-1.8 0-2.5-.5-1-.8-1.2-2.3-.4-3.4l.1-.1.1-.1c-.7-1.5-1.1-3.1-1.3-4.8h1.7c.1 1.4.5 2.7 1 4 .5 0 1 0 1.4.2l4.1-4.5 1.3 1-4.1 4.5c.5.9.5 2-.1 2.8.9 1 1.9 1.9 3.1 2.6m-6-4.8c.3-.4 1-.5 1.5 0s.5 1 .1 1.4c-.4.4-1.1.5-1.6.1-.4-.4-.5-1 0-1.5-.1.1-.1 0 0 0m-2.2-4.5-1.6-.3-.3-4.3 1.7-.6v2.5c0 1 0 1.8.2 2.7m1.4-5.3 1.7.4v2.2c0-.8.3 2.1.3 2.1l-1.7.6c-.2-.9-.3-1.8-.3-2.7v-2.6zm5.6 13.7c1.4 1.1 3.1 2 4.8 2.6l.4-1.6c-1.4-.4-2.8-1.1-4-2l-1.2 1zm-.8 1.4c1.5 1.1 3.1 2 4.8 2.6l-1.2 1.1c-1.4-.5-2.8-1.2-4-2l.4-1.7zm2.2-9.4 1.6.7 3-3.3-1-1.4-3.6 4zm-1.3-1-1-1.4 3-3.3 1.6.7-3.6 4zm18.1 9.9.8 1.4c1.3-.9 2.6-1.9 3.6-3.1.9.2 1.8 0 2.5-.5 1-.8 1.2-2.3.4-3.4l-.1-.1-.1-.1c.7-1.5 1.1-3.1 1.3-4.8H177c-.1 1.4-.5 2.7-1 4-.5 0-1 0-1.4.2l-4.1-4.5-1.3 1 4.1 4.5c-.6.9-.5 2 .1 2.8-.9 1-2 1.9-3.1 2.6m6-4.8c-.4-.4-1.1-.4-1.5 0-.4.4-.5 1-.1 1.4.4.4 1.1.5 1.6.1.4-.4.4-1 0-1.5 0 .1 0 0 0 0m2.2-4.5 1.6-.3.3-4.3-1.7-.6v2.5c0 1 0 1.9-.2 2.8v-.1zm-1.4-5.3-1.7.4v2.2c0-.8-.3 2.1-.3 2.1l1.7.6.3-2.7v-2.6zm-5.6 13.7c-1.4 1.1-3.1 2-4.8 2.6l-.4-1.6c1.4-.4 2.8-1.1 4-2l1.2 1zm.8 1.4c-1.5 1.1-3.1 2-4.8 2.6l1.2 1.1c1.4-.5 2.8-1.2 4-2l-.4-1.7zm-2.2-9.4-1.6.7-2.9-3.3 1-1.4 3.5 4zm1.3-1 1-1.4-3-3.3-1.6.7 3.6 4zm-20.1-8.7.5 1.6h4.5l.5-1.6h-5.5zm21.1 0-.5 1.6h-4.5l-.5-1.6h5.5zm-11.6 21.9c0-.6.5-1 1.1-1 .5-.1 1 .3 1.1.9v.1c0 .6-.5 1-1 1-.6.1-1.2-.4-1.2-1m1.9-7.8 1.7-.4v-4.3l-1.7-.5v5.2zm-1.6 0-1.7-.4v-4.3l1.7-.5v5.2z" class="st4"/><path d="M143 294.7c.2-1 1-1.6 1.8-2v-5.2h1.6v5.3c.8.3 1.5.9 1.7 1.6h4.4v.3h-6c-.2-.4-.6-.6-1-.6s-.7.3-1 .6H143zm12.2 0v-.3h4.1c.1-.1.1-.2.2-.3l-5-5.7 1.2-1 5 5.6.2-.1v-7.4h1.6v7.3h.3l4.9-5.5 1.2 1-4.9 5.5.3.6h4v.3h-13.1zm21.6 0c.2-.4.6-.6 1-.6.5 0 .8.3 1 .6h1.6c-.2-1-.9-1.6-1.8-2v-5.2H177v5.3c-.8.3-1.4.8-1.7 1.6h-4.4v.3h5.9zm-30.2-15 6 6.8 1.3-1-6.1-6.7.3-.6h4.4v-1.7h-4.4c-.4-1-1.4-1.7-2.5-1.7-1.4-.1-2.6 1.1-2.7 2.5 0 1.1.7 2.1 1.8 2.4v5.2h1.6v-5.2h.3zm32 0v5.3h-1.7v-5.2c-.1-.1-.3-.1-.4-.2l-6 6.8-1.3-1 6.2-6.9-.1-.3h-4.5v-1.7h4.5c.4-1 1.3-1.7 2.4-1.7 1.4-.1 2.6 1.1 2.7 2.5 0 1.1-.8 2.1-1.9 2.4h.1zm-16.1 0v3.3h-1.7v-3.2c-.8-.2-1.4-.8-1.7-1.6h-4v-1.7h4c.4-1 1.4-1.7 2.5-1.7 1.2 0 2.2.7 2.5 1.7h4v1.6h-4c-.3.8-.9 1.4-1.6 1.6m-17.8 4-1.7.4v4.3l1.7.5v-5.2zm1.6 0 1.7.4v4.3l-1.7.5v-5.2zm30.6 0-1.7.4v4.3l1.7.5v-5.2zm1.6 0 1.7.4v4.3l-1.7.5v-5.2zm-25.5.8 1.6-.7 2.9 3.3-1 1.4-3.5-4zm-1.3 1-1 1.4 3 3.3 1.6-.7-3.6-4zm18.5-1.1-1.6-.7-3 3.3 1 1.4 3.6-4zm1.2 1 1 1.4-3 3.3-1.5-.7 3.5-4zm-20.3 9 .5-1.6h4.5l.5 1.6h-5.5zm-6.7-17c0-.6.5-1 1.2-1 .6 0 1 .4 1 1s-.4 1-1 1c-.6.1-1.2-.4-1.2-1m12.1.8-.5 1.6h-4.5l-.5-1.6h5.5zm0-1.6-.5-1.6h-4.5l-.5 1.6h5.5zm15.7 17.8-.5-1.6h-4.5l-.5 1.6h5.5zm4.4-17c0-.6.5-1 1.1-1 .5-.1 1 .3 1.1.9v.1c0 .6-.5 1-1 1-.6.1-1.2-.4-1.2-1m-16.1 0c0-.6.5-1 1.1-1 .5-.1 1 .3 1.1.9v.1c0 .6-.5 1-1.1 1-.6 0-1.1-.4-1.1-1m6.2.8.5 1.6h4.6l.5-1.6h-5.6zm0-1.6.5-1.6h4.6l.5 1.6h-5.6zm-5.9 5-1.7.5v4.3l1.7.5v-5.3m1.7-.1 1.6.5v4.3l-1.6.5v-5.3z" class="st4"/><path d="M164.2 316.8c1.3-.2 2.5-.6 3.7-1.1l.8 1.4c-1.4.6-2.8 1-4.3 1.2-.3 1.2-1.4 2-2.6 2-1.2 0-2.2-.8-2.5-2-1.6-.2-3.1-.6-4.6-1.2l.8-1.4c1.3.5 2.6.9 4 1 .3-.6.8-1.1 1.5-1.3v-6.7h1.6v6.7c.7.2 1.3.7 1.6 1.4zm-4.7-20.4c-.1-.2-.2-.3-.2-.5h-4v-1.4h4c.1-.1.1-.3.2-.4l-5-5.6 1.2-1 5 5.5h.2v-7.5h1.7v7.3h.2l4.9-5.5 1.2 1-4.9 5.5.3.6h4v1.5h-4c0 .2-.2.4-.3.5l4.7 5.3-1.3 1-4.6-5.3-.2.1v8.7H161v-8.7l-.2-.1-4.8 5.3-1.2-1 4.7-5.3m-12.8-16.7 6 6.8 1.3-1-6.1-6.7.3-.6h4.4v-1.7h-4.4c-.4-1-1.4-1.7-2.5-1.7-1.4 0-2.5 1.1-2.6 2.5 0 1.1.7 2.1 1.7 2.4v5.2h1.6v-5.2h.3zm6.5 34.8-.8 1.4c-1.3-.9-2.6-1.9-3.6-3.1-.9.2-1.8 0-2.5-.5-1-.8-1.2-2.3-.4-3.4l.1-.1.1-.1c-.7-1.5-1.1-3.1-1.2-4.8h1.6c.1 1.4.5 2.7 1 4 .5 0 1 0 1.4.2l4.1-4.5 1.3 1-4.1 4.5c.6.9.5 2-.1 2.8.9 1 1.9 1.9 3.1 2.6zm-8.4-13.1v-3.9c-1.1-.3-1.8-1.3-1.8-2.4 0-1 .8-2 1.8-2.4v-5.2h1.6v5.3c.8.2 1.5.8 1.7 1.6h4.4v1.5h-4.4c-.3.7-.9 1.3-1.6 1.6v3.9h-1.7m2.3 8.3c.4-.4 1.1-.5 1.6 0s.5 1 .1 1.4c-.4.4-1.1.5-1.6.1-.4-.4-.5-1-.1-1.5 0 .1.1 0 .1 0h-.1zm-2-4.5-1.7-.3-.3-4.3 1.7-.6v2.5c0 1 0 1.8.3 2.7zm1.4-5.3 1.6.4v2.2c0-.8.3 2.1.3 2.1l-1.7.6-.3-2.7.1-2.6zm5.5 13.7c1.4 1.1 3.1 2 4.8 2.6l.4-1.6c-1.4-.4-2.8-1.1-4-2l-1.2 1m-.8 1.4c1.5 1.1 3.1 2 4.8 2.6l-1.2 1.1c-1.4-.5-2.8-1.2-4-2l.4-1.7" class="st29"/><path d="m153.4 305.6 1.6.7 3-3.3-1-1.4-3.6 4m-1.3-1-1-1.4 3-3.3 1.6.7-3.6 4m-7.6-9.5c0-.6.5-1 1-1 .7 0 1.2.5 1.2 1 0 .6-.5 1.1-1.1 1.1-.5.1-1-.3-1.1-.9v-.2zm25.7 19.4.8 1.4c1.3-.9 2.6-1.9 3.6-3.1.9.2 1.8 0 2.6-.5 1-.8 1.2-2.4.3-3.4l-.1-.1-.1-.1c.7-1.5 1.1-3.1 1.3-4.8h-1.7c-.1 1.4-.5 2.7-1 4-.5 0-1 0-1.4.2l-4.1-4.5-1.3 1 4.1 4.5c-.6.9-.5 2 .1 2.8-.9 1-1.9 1.9-3 2.6h-.1zm8.4-13.1v-3.9c1.1-.3 1.8-1.3 1.8-2.4 0-1-.7-2-1.8-2.4v-5.2H177v5.3c-.8.2-1.4.8-1.7 1.6h-4.4v1.5h4.4c.3.8.9 1.3 1.7 1.6v3.9h1.6zm-2.3 8.3c-.5-.4-1.1-.4-1.6 0-.4.4-.5 1-.1 1.4.4.4 1.1.5 1.6.1.4-.4.4-1 .1-1.5 0 .1-.1 0-.1 0h.1zm2-4.5 1.7-.3.3-4.3-1.7-.6v2.5c0 1 0 1.8-.2 2.7h-.1zm-1.3-5.3-1.7.4v2.2c0-.8-.3 2.1-.3 2.1l1.7.6.3-2.7v-2.6m1.6-20.1v5.2H177v-5.2c-.1-.1-.3-.1-.4-.2l-6 6.8-1.2-1 6-7v-.2h-4.5v-1.7h4.4c.4-1 1.4-1.7 2.5-1.7 1.4 0 2.5 1.1 2.6 2.5 0 1.1-.7 2.1-1.8 2.4v.1zm-16 0v3.2h-1.7v-3.2c-.8-.2-1.4-.8-1.7-1.6h-4v-1.7h4c.4-1 1.3-1.7 2.5-1.7s2.2.7 2.5 1.7h4v1.6h-4c-.2.8-.8 1.4-1.6 1.6v.1zm8.8 33.8c-1.4 1.1-3.1 2-4.8 2.6l-.4-1.6c1.4-.4 2.8-1.1 4-2l1.2 1m.8 1.4c-1.5 1.1-3.1 2-4.8 2.6l1.2 1.1c1.4-.5 2.8-1.2 4-2l-.4-1.7m-27.4-31.4-1.7.5v4.3l1.7.5v-5.3m1.7.1 1.6.4v4.3l-1.6.5v-5.4m30.5 0-1.7.5v4.3l1.7.5v-5.3" class="st29"/><path d="m178.6 283.6 1.7.5v4.3l-1.7.5v-5.4m-8.6 22-1.6.7-2.9-3.3 1-1.4 3.5 4m1.3-1 1-1.4-3-3.3-1.6.7 3.6 4m-18.2-20 1.6-.7 3 3.3-1 1.4-3.6-4m-1.3 1-1 1.4 3 3.3 1.6-.7-3.6-4m18.5-1.1-1.6-.7-3 3.3 1 1.4 3.6-4m1.2 1 1 1.4-3 3.2-1.5-.6 3.5-4m-20.3 9 .5-1.6h4.5l.5 1.6h-5.5m0 1.5.5 1.6h4.5l.5-1.6h-5.5m-6.7-18.4c0-.6.5-1 1.2-1 .6 0 1 .4 1 1s-.4 1-1 1c-.5.1-1.1-.2-1.2-.8v-.2zm12.1.8-.5 1.6h-4.5l-.5-1.6h5.5m0-1.6-.5-1.6h-4.5l-.5 1.6h5.5m20.1 18.5c0-.5.5-1 1.1-1s1.1.5 1.1 1c0 .6-.5 1.1-1 1.1-.5.1-1.1-.2-1.2-.8v-.3zm-4.4-.7-.5-1.6h-4.5l-.5 1.6h5.5m0 1.5-.5 1.6h-4.5l-.5-1.6h5.5m-11.6 21.9c0-.6.5-1 1.1-1s1.1.4 1.1 1-.5 1-1 1c-.6.1-1.2-.4-1.2-1zm1.9-7.8 1.7-.4v-4.3l-1.7-.5v5.2m-1.6 0-1.7-.4v-4.3l1.7-.5v5.2m15.7-32.6c0-.6.5-1 1.1-1 .5-.1 1 .3 1.1.9v.1c0 .6-.5 1-1 1-.6.1-1.2-.4-1.2-1zm-16.1 0c0-.6.5-1 1.1-1 .5-.1 1 .3 1.1.9v.1c0 .6-.5 1-1 1-.6.1-1.2-.4-1.2-1zm6.2.8.5 1.6h4.6l.5-1.6h-5.5m0-1.6.4-1.6h4.6l.5 1.6h-5.5m-6 5-1.6.5v4.3l1.6.5v-5.5m1.7 0 1.6.5v4.3l-1.6.5v-5.3" class="st29"/><path d="M159.2 295.2c.1-1.4 1.2-2.5 2.6-2.5 1.4 0 2.5 1.1 2.6 2.5-.1 1.4-1.2 2.4-2.6 2.4-1.4 0-2.6-1-2.6-2.4" class="st7"/><path d="M162.4 230.2v-.6l.1-.3-2.3-.1c-.8-.2-1.6-.6-2.3-1.2-.8-.7-1.1-1-1.6-1.2-1.3-.2-2.3.4-2.3.4s1 .4 1.7 1.3 1.5 1.3 1.8 1.4c.6.2 2.6 0 3.1.1l1.8.2z" class="st30"/><path d="M162.4 230.2v-.6l.1-.3-2.3-.1c-.8-.2-1.6-.6-2.3-1.2-.8-.7-1.1-1-1.6-1.2-1.3-.2-2.3.4-2.3.4s1 .4 1.7 1.3 1.5 1.3 1.8 1.4c.6.2 2.6 0 3.1.1l1.8.2z" class="st8"/><path d="M169.6 228v1.4c.2.6-.1 1.2 0 1.5 0 .4.1.6.3.9l.2.9-.7-.5-.6-.4v1c.1.2.3.8.6 1.1l1 1.3c.2.5.1 1.4.1 1.4s-.4-.7-.8-.8l-1.2-.7s.7.8.7 1.5c0 .8-.3 1.6-.3 1.6s-.3-.7-.8-1.1l-1-.9s.4 1.2.4 2v2.3l-.9-1-1-.7c0-.2.5.6.6 1.1 0 .5.3 2.3 1.8 4.5 1 1.3 2.3 3.6 5.3 2.9 3-.8 1.9-4.8 1.3-6.7a18 18 0 0 1-1-4.6c0-.8.6-2.9.5-3.3-.1-1-.1-2.1.2-3.1.4-1.3.7-1.8.9-2.3.2-.6.4-.9.4-1.3l.1-1.3.7 1.3.1 1.5s.1-1 1-1.6c.8-.6 1.8-1.1 2-1.4.3-.3.3-.5.3-.5s0 1.8-.6 2.6l-1.7 2s.7-.3 1.2-.3h.9s-.6.4-1.4 1.6c-.8 1-.5 1.2-1 2.1-.6 1-1 1-1.7 1.5-1 .8-.5 4.2-.4 4.7.2.5 2 4.5 2 5.5s.2 3.2-1.5 4.6c-1.1 1-3 1-3.4 1.2-.4.3-1.2 1.1-1.2 2.8s.6 2 1 2.4c.6.5 1.2.2 1.3.6.2.3.2.5.5.7.2.2.3.4.2.8 0 .3-.8 1.1-1.1 1.7l-.8 2.4c0 .2-.1 1 .1 1.3 0 0 .9 1 .3 1.2-.4.2-.8-.2-1-.2l-.9.5c-.3-.1-.3-.3-.4-.8l-.1-.7c-.2 0-.3.2-.4.5 0 .2 0 .8-.3.8-.2 0-.5-.4-.8-.5-.2 0-.8-.2-.8-.4 0-.3.4-.9.7-1 .4 0 .8-.3.5-.5s-.5-.2-.7 0-.8 0-.7-.2v-.8c0-.2-.4-.5.1-.8.6-.3.8.2 1.4.1.6 0 .8-.3 1-.6.2-.3.2-1-.2-1.4-.4-.5-.7-.5-.9-.8l-.3-.9v2.2l-.7-.8c-.3-.3-.6-1.3-.6-1.3v1.3c0 .4.3.7.2.8-.1.1-.8-.7-1-.8-.4-.3-.7-.6-1-1l-.4-1.4c-.1-.5-.1-1 0-1.5l.4-1h-1.4c-.7 0-1.2-.3-1.5.2s-.2 1.5.2 2.8c.3 1.2.5 1.9.4 2.1-.2.3-.4.6-.7.8h-.9c-.4-.2-.8-.3-1.2-.3h-1.3l-1.1-.3c-.3.1-.8.3-.6.7.2.6-.2.7-.5.7l-.9-.2c-.4-.1-.9 0-.8-.4 0-.4.2-.4.4-.7s.2-.5 0-.5h-.6c-.2.2-.5.5-.8.4-.2-.1-.4-.4-.4-1s-.7-1.2 0-1.1c.5 0 1.3.4 1.4 0 .2-.3 0-.4-.2-.7s-.8-.4-.3-.7l.7-.5c.1-.2.4-.8.7-.6.6.2 0 .7.6 1.3.6.7 1 1 2 .8 1 0 1.3-.2 1.3-.5l-.1-1v-1s-.4.3-.5.6l-.4.8v-2c-.1-.3-.1-.5-.2-.8l-.3.9-.1 1s-.7-.5-.5-1.5c.1-.7-.1-1.6.1-2 .2-.3.7-1.5 2-1.6h2.6l2-.3s-2.8-1.4-3.5-1.9c-.8-.6-1.4-1.2-2-2l-.6-1.6s-.5 0-1 .3c-.4.3-.9.6-1.2 1l-.7 1 .1-1.2v-.8s-.4 1.2-1 1.7l-1.4 1v-.8l.2-1s-.4.8-1.1 1c-.7 0-1.8 0-1.9.4 0 .5.2 1 0 1.4 0 .3-.4.5-.4.5l-.8-.4c-.4 0-.7.2-.7.2s-.3-.4-.2-.7c.1-.2.7-.6.5-.8l-.8.2c-.3.1-.8.3-.8-.2 0-.4.2-.7 0-1 0-.3 0-.5.2-.6l1.2-.1c0-.2-.2-.5-.8-.6s-.8-.5-.5-.8c.3-.2.3-.3.5-.6.1-.2.2-.7.7-.5.5.3.4.8 1 1 .7.1 1.4 0 2-.2l1.5-1 1.5-1-1-.8c-.3-.3-.7-.9-1-1-.6-.3-1.2-.5-1.8-.6-.6-.1-1.2-.3-1.7-.5l.8-.3c.2-.2.6-.6.8-.6h.3-1.4c-.3-.1-1-.6-1.3-.6l-.8.1s.8-.4 1.4-.5l1-.1s-.9-.3-1.1-.6l-.6-1c-.2-.1-.3-.5-.6-.5l-1 .3c-.4 0-.6-.2-.6-.6l-.1-.5c-.2-.3-.6-.8-.2-1h1.4c0-.2-.5-.6-.8-.8-.4-.2-1-.5-.7-.8l.8-.5c.2-.3.3-1 .7-.7.4.2.8 1.2 1.1 1.1.3 0 .3-.8.3-1 0-.4 0-1 .2-.9.3 0 .5.4 1 .5.4 0 1-.1 1 .2s-.3.7-.6 1-.4 1-.3 1.4c.2.5.7 1.2 1.2 1.4.4.3 1.2.5 1.7.9.5.3 1.7 1.2 2.1 1.3l.8.4s.5-.2 1.1-.2c.7 0 2.1 0 2.6-.2.6-.2 1.3-.6 1-1-.1-.6-1.3-1-1.2-1.4 0-.4.5-.4 1.2-.4.8 0 1.8.1 2-1 .2-1 .2-1.5-.8-1.8-1-.2-1.8-.2-2-1-.2-.7-.4-.9-.2-1.1.3-.2.6-.3 1.4-.4.8 0 1.6 0 1.9-.2.2-.2.3-.7.6-.9s1.4-.4 1.4-.4 1.4.7 2.7 1.7c.8.6 1.5 1.3 2.2 2.1" style="fill:#ed72aa;stroke:#000;stroke-width:.4"/><path d="m159.6 227.3-.2-.6v-.3s.8 0 .7.3c0 .2-.2.2-.3.3l-.2.3z"/><path d="m159.6 227.3-.2-.6v-.3s.8 0 .7.3c0 .2-.2.2-.3.3l-.2.3z" class="st5"/><path d="M163.5 225.9v-.4s.7 0 1 .3c.5.4.9 1 .9 1l-.8-.4h-.5l-.3-.1v-.3l-.3-.1z"/><path d="M163.5 225.9v-.4s.7 0 1 .3c.5.4.9 1 .9 1l-.8-.4h-.5l-.3-.1v-.3l-.3-.1z" class="st14"/><path d="m168.8 231.8-.4-.7c-.1-.1-.2-.3-.3-.4" class="st5"/><path d="M148.9 227.1s.5.4.8.4h.8s.2-.5.1-.8c-.2-1.2-1.2-1.4-1.2-1.4s.3.7.1 1c-.2.3-.4.6-.6.8" class="st30"/><path d="M148.9 227.1s.5.4.8.4h.8s.2-.5.1-.8c-.2-1.2-1.2-1.4-1.2-1.4s.3.7.1 1c-.2.3-.4.6-.6.8z" class="st8"/><path d="M146.7 228.1s-.4-.7-1.3-.6c-.8 0-1.4.8-1.4.8h1.2c.3.3.4 1 .4 1l.7-.6c.1-.2.2-.4.4-.6" class="st30"/><path d="M146.7 228.1s-.4-.7-1.3-.6c-.8 0-1.4.8-1.4.8h1.2c.3.3.4 1 .4 1l.7-.6c.1-.2.2-.4.4-.6z" class="st8"/><path d="M145.7 231.1s-.8.1-1.2.6-.3 1.3-.3 1.3.4-.5.9-.5l1 .2-.1-.8-.3-.8z" class="st30"/><path d="M145.7 231.1s-.8.1-1.2.6-.3 1.3-.3 1.3.4-.5.9-.5l1 .2-.1-.8-.3-.8z" class="st8"/><path d="m159.7 231 .3-.5.3.5h-.6z"/><path d="m159.7 231 .3-.5.3.5h-.6" class="st5"/><path d="m160.5 231 .3-.5.4.5h-.7z"/><path d="m160.5 231 .3-.5.4.5h-.8" class="st5"/><path d="m160.1 227.8.8.3-.7.4-.1-.7"/><path d="m160.1 227.8.8.3-.7.4-.1-.7" class="st5"/><path d="m161 228.1.7.2-.5.4-.2-.6z"/><path d="m161 228.1.7.2-.5.4-.2-.6" class="st5"/><path d="M155.7 234.2s-.7.2-1 .6c-.4.5-.3 1-.3 1s.6-.5 1.5-.3l1.2.3 1.3-.3s-.7.8-.7 1.3l.2 1.1c0 .7-.6 1.6-.6 1.6l1-.3c.6-.1 1.2-.4 1.7-.8l.9-1s-.2 1 0 1.4l.2 1.6.8-.6c.2-.1.7-.4.9-.7l.3-1s0 .8.4 1.3l.6 1.6s.3-.8.6-1.1c.3-.4.7-.8.7-1 0-.3 0-.6-.1-.9l.4.8m-11 .6s.5-.8 1-1l1.1-.8.9-.4m1 5 1.3-.8c.4-.3.7-.6 1-1" class="st8"/><path d="M148.1 240.9s-.4-.5-1.1-.3c-.7 0-1.2.9-1.2.9s.6-.2 1-.1.6.4.6.4l.4-.4.3-.5z" class="st30"/><path d="M148.1 240.9s-.4-.5-1.1-.3c-.7 0-1.2.9-1.2.9s.6-.2 1-.1.6.4.6.4l.4-.4.3-.5z" class="st8"/><path d="M147.3 243.7s-.6 0-1.1.3c-.5.4-.5 1.2-.5 1.2s.4-.4.8-.3l.9.2v-.6c.2-.4-.1-.8-.1-.8" class="st30"/><path d="M147.3 243.7s-.6 0-1.1.3c-.5.4-.5 1.2-.5 1.2s.4-.4.8-.3l.9.2v-.6c.2-.4-.1-.8-.1-.8z" class="st8"/><path d="M148.7 246.3s0 .8.3 1.3c.4.5 1.1.5 1.1.5l-.3-.7c0-.4.3-.8.3-.8s-.3-.3-.7-.3h-.7z" class="st30"/><path d="M148.7 246.3s0 .8.3 1.3c.4.5 1.1.5 1.1.5l-.3-.7c0-.4.3-.8.3-.8s-.3-.3-.7-.3h-.7zm16 1.3s2 1.2 1.9 2.2c0 1-1 2.3-1 2.3" class="st8"/><path d="M155.7 253.1s-.4-.6-1.1-.6c-.7 0-1.4.7-1.4.7s.8-.1 1 .2l.5.6.5-.3.5-.6z" class="st30"/><path d="M155.7 253.1s-.4-.6-1.1-.6c-.7 0-1.4.7-1.4.7s.8-.1 1 .2l.5.6.5-.3.5-.6z" class="st8"/><path d="M153.7 255.8s-1-.1-1.4.3c-.4.5-.4 1.3-.4 1.3s.6-.6 1-.5c.5 0 1 .3 1 .3v-.7l-.2-.7" class="st30"/><path d="M153.7 255.8s-1-.1-1.4.3c-.4.5-.4 1.3-.4 1.3s.6-.6 1-.5c.5 0 1 .3 1 .3v-.7l-.2-.7z" class="st8"/><path d="M155.5 258.6s-.3.7 0 1.1c.3.5 1 .8 1 .8s-.3-.4-.2-.8c.1-.3.7-.8.7-.8l-1.4-.2" class="st30"/><path d="M155.5 258.6s-.3.7 0 1.1c.3.5 1 .8 1 .8s-.3-.4-.2-.8c.1-.3.7-.8.7-.8l-1.4-.2-.1-.1z" class="st8"/><path d="M167.5 259.8s-.8-.2-1.2 0c-.5.3-.8 1.4-.8 1.4s.7-.6 1.2-.5c.5 0 1 .3 1 .3v-.8l-.2-.4z" class="st30"/><path d="M167.5 259.8s-.8-.2-1.2 0c-.5.3-.8 1.4-.8 1.4s.7-.6 1.2-.5c.5 0 1 .3 1 .3v-.8l-.2-.4z" class="st8"/><path d="M167.9 262.7s-.6.6-.4 1.1l.6 1s0-.7.2-1l1-.3-.7-.5c-.3-.1-.5-.2-.7-.3" class="st30"/><path d="M167.9 262.7s-.6.6-.4 1.1l.6 1s0-.7.2-1l1-.3-.7-.5c-.3-.1-.5-.2-.7-.3z" class="st8"/><path d="M170.9 263.5s-.3.8.2 1.3c.6.5 1 .5 1 .5s-.3-.7-.2-1.1c.1-.5.5-.7.5-.7l-.8-.2-.7.2" class="st30"/><path d="M170.9 263.5s-.3.8.2 1.3c.6.5 1 .5 1 .5s-.3-.7-.2-1.1c.1-.5.5-.7.5-.7l-.8-.2-.7.2z" class="st8"/><path d="M140.3 316.9c2 .6 3 2 3 3.8 0 2.3-2.2 4-5 4-3 0-5.3-1.7-5.3-4 0-1.7 1-3.6 3-3.8l-.2-.4-.7-.7h1.2l.8.5.5-.7c.3-.4.6-.5.6-.5l.6.6.3.5.7-.4.8-.3s0 .4-.2.7l-.1.7" style="fill:#ffd691;stroke:#000;stroke-width:.5"/><path d="M137.8 327.2s-3.8-2.6-5.5-3c-2-.4-4.5 0-5.5 0 0 0 1.2.8 1.8 1.4.5.5 2.3 1.5 3.3 1.8 3 .8 6-.2 6-.2m1 .2s2.4-2.5 5-2.9c3-.4 5 .3 6.2.6l-1.5.8c-.5.3-2 1.5-4 1.6-2 0-4.4-.3-4.8-.2l-.9.1" class="st33"/><path d="M138.2 324.3c-2-1.8-2.1-4.8-.3-6.8l.3-.3c1 .9 1.5 2.2 1.5 3.5 0 1.4-.6 2.7-1.5 3.6" style="fill:#ad1519;stroke:#000;stroke-width:.5"/><path d="M137.2 329.5s.6-1.5.6-2.7l-.1-2.1h.8s.3 1.1.3 2l-.1 2.4-.7.1-.8.3" class="st33"/><path d="M185.5 191.2c0-.5.5-1 1-1 .6 0 1.1.5 1.1 1 0 .6-.5 1-1 1-.6 0-1-.4-1-1" class="st6"/><path d="M185.5 191.2c0-.5.5-1 1-1 .6 0 1.1.5 1.1 1 0 .6-.5 1-1 1-.6 0-1-.4-1-1h-.1z" class="st8"/><path d="M186.9 188.7c0-.6.5-1 1.1-1s1 .4 1 1-.4 1-1 1-1-.4-1-1" class="st6"/><path d="M186.9 188.7c0-.6.5-1 1.1-1s1 .4 1 1-.4 1-1 1-1-.4-1-1h-.1z" class="st8"/><path d="M187.9 185.7c0-.5.5-1 1-1 .6 0 1.1.5 1.1 1s-.5 1-1 1c-.5.1-1-.3-1.1-.9v-.1" class="st6"/><path d="M187.9 185.7c0-.5.5-1 1-1 .6 0 1.1.5 1.1 1s-.5 1-1 1c-.5.1-1-.3-1.1-.9v-.1z" class="st8"/><path d="M188 182.5c0-.5.5-1 1-1 .6 0 1.1.5 1.1 1 0 .6-.5 1-1 1-.6 0-1-.4-1-1" class="st6"/><path d="M188 182.5c0-.5.5-1 1-1 .6 0 1.1.5 1.1 1 0 .6-.5 1-1 1-.6 0-1-.4-1-1h-.1z" class="st8"/><path d="M187.2 179.5c0-.6.5-1 1-1 .7 0 1.2.4 1.2 1s-.5 1-1.1 1c-.6 0-1-.4-1-1" class="st6"/><path d="M187.2 179.5c0-.6.5-1 1-1 .7 0 1.2.4 1.2 1s-.5 1-1.1 1c-.6 0-1-.4-1-1h-.1z" class="st8"/><path d="M185.6 176.6c0-.5.5-1 1-1 .7 0 1.1.5 1.1 1s-.4 1-1 1-1-.4-1-1" class="st6"/><path d="M185.6 176.6c0-.5.5-1 1-1 .7 0 1.1.5 1.1 1s-.4 1-1 1-1-.4-1-1h-.1z" class="st8"/><path d="M183.5 174.3c0-.6.4-1 1-1s1 .4 1 1-.4 1-1 1-1-.4-1-1" class="st6"/><path d="M183.5 174.3c0-.6.4-1 1-1s1 .4 1 1-.4 1-1 1-1-.4-1-1z" class="st8"/><path d="M180.9 172.3c0-.5.5-1 1.1-1 .6 0 1 .4 1 1s-.4 1-1 1-1-.4-1-1" class="st6"/><path d="M180.9 172.3c0-.5.5-1 1.1-1 .6 0 1 .4 1 1s-.4 1-1 1-1-.4-1-1h-.1z" class="st8"/><path d="M178 170.8c0-.6.4-1 1-1s1 .4 1 1-.4 1-1 1-1-.4-1-1" class="st6"/><path d="M178 170.8c0-.6.4-1 1-1s1 .4 1 1-.4 1-1 1-1-.4-1-1z" class="st8"/><path d="M174.8 169.6c0-.5.5-1 1.1-1 .6 0 1 .4 1 1s-.4 1-1 1-1-.4-1-1" class="st6"/><path d="M174.8 169.6c0-.5.5-1 1.1-1 .6 0 1 .4 1 1s-.4 1-1 1-1-.4-1-1h-.1z" class="st8"/><path d="M171.4 169c0-.5.4-1 1-1s1 .5 1 1-.4 1-1 1-1-.4-1-1" class="st6"/><path d="M171.4 169c0-.5.4-1 1-1s1 .5 1 1-.4 1-1 1-1-.4-1-1z" class="st8"/><path d="M168.1 168.8c0-.5.4-1 1-1s1 .5 1 1-.4 1-1 1-1-.4-1-1" class="st6"/><path d="M168.1 168.8c0-.5.4-1 1-1s1 .5 1 1-.4 1-1 1-1-.4-1-1z" class="st8"/><path d="M164.8 169c0-.6.5-1 1-1 .7 0 1.1.4 1.1 1s-.4 1-1 1-1-.4-1-1" class="st6"/><path d="M164.8 169c0-.6.5-1 1-1 .7 0 1.1.4 1.1 1s-.4 1-1 1-1-.4-1-1h-.1z" class="st8"/><path d="M161.6 169c0-.6.5-1 1-1 .6 0 1.1.4 1.1 1s-.5 1-1 1c-.5.1-1-.3-1.1-.9v-.1" class="st6"/><path d="M161.6 169c0-.6.5-1 1-1 .6 0 1.1.4 1.1 1s-.5 1-1 1c-.5.1-1-.3-1.1-.9v-.1z" class="st8"/><path d="M163.2 171.7c0-.5.5-1 1-1 .7 0 1.1.5 1.1 1s-.4 1-1 1-1-.4-1-1m.6 3.1c0-.6.4-1 1-1s1 .4 1 1c0 .5-.4 1-1 1s-1-.4-1-1m0 3c0-.5.6-1 1.1-1 .6 0 1 .4 1 1s-.4 1-1 1-1-.4-1-1m-1 2.8c0-.5.5-1 1-1 .7 0 1.1.5 1.1 1 0 .6-.4 1-1 1s-1-.4-1-1m-1.9 2.6c0-.5.5-1 1-1 .7 0 1.2.5 1.2 1s-.5 1-1.1 1-1-.4-1.1-1" class="st21"/><path d="M159.1 167c0-.5.5-1 1.1-1 .6 0 1 .4 1 1s-.4 1-1 1-1-.4-1-1" class="st6"/><path d="M159.1 167c0-.5.5-1 1.1-1 .6 0 1 .4 1 1s-.4 1-1 1-1-.4-1-1h-.1z" class="st8"/><path d="M156.3 165.5c0-.6.4-1 1-1s1 .4 1 1-.4 1-1 1-1-.4-1-1" class="st6"/><path d="M156.3 165.5c0-.6.4-1 1-1s1 .4 1 1-.4 1-1 1-1-.4-1-1z" class="st8"/><path d="M153.1 164.5c0-.6.5-1 1-1 .6 0 1.1.4 1.1 1 0 .5-.5 1-1 1-.6 0-1.1-.5-1.1-1" class="st6"/><path d="M153.1 164.5c0-.6.5-1 1-1 .6 0 1.1.4 1.1 1 0 .5-.5 1-1 1-.6 0-1.1-.5-1.1-1z" class="st8"/><path d="M149.8 163.9c0-.5.5-1 1-1 .6 0 1.1.5 1.1 1s-.5 1-1 1c-.5.1-1-.3-1.1-.9v-.1" class="st6"/><path d="M149.8 163.9c0-.5.5-1 1-1 .6 0 1.1.5 1.1 1s-.5 1-1 1c-.5.1-1-.3-1.1-.9v-.1z" class="st8"/><path d="M146.5 164c0-.6.5-1 1.1-1s1 .4 1 1c0 .5-.4 1-1 1s-1-.4-1-1" class="st6"/><path d="M146.5 164c0-.6.5-1 1.1-1s1 .4 1 1c0 .5-.4 1-1 1s-1-.4-1-1h-.1z" class="st8"/><path d="M143.2 164.5c0-.5.5-1 1-1 .7 0 1.1.5 1.1 1s-.4 1-1 1-1-.4-1-1" class="st6"/><path d="M143.2 164.5c0-.5.5-1 1-1 .7 0 1.1.5 1.1 1s-.4 1-1 1-1-.4-1-1h-.1z" class="st8"/><path d="M140.1 165.6c0-.5.5-1 1-1 .6 0 1.1.5 1.1 1s-.5 1-1 1c-.5.1-1-.3-1.1-.9v-.1" class="st6"/><path d="M140.1 165.6c0-.5.5-1 1-1 .6 0 1.1.5 1.1 1s-.5 1-1 1c-.5.1-1-.3-1.1-.9v-.1z" class="st8"/><path d="M87.5 191.2c0-.5.4-1 1-1s1 .5 1 1c0 .6-.4 1-1 1s-1-.4-1-1" class="st6"/><path d="M87.5 191.2c0-.5.4-1 1-1s1 .5 1 1c0 .6-.4 1-1 1s-1-.4-1-1z" class="st8"/><path d="M86 188.7c0-.6.5-1 1-1 .6 0 1 .4 1 1s-.4 1-1 1-1-.4-1-1" class="st6"/><path d="M86 188.7c0-.6.5-1 1-1 .6 0 1 .4 1 1s-.4 1-1 1-1-.4-1-1z" class="st8"/><path d="M85 185.7c0-.5.5-1 1-1 .7 0 1.1.5 1.1 1s-.4 1-1 1-1-.4-1-1" class="st6"/><path d="M85 185.7c0-.5.5-1 1-1 .7 0 1.1.5 1.1 1s-.4 1-1 1-1-.4-1-1H85z" class="st8"/><path d="M84.9 182.5c0-.5.5-1 1-1 .6 0 1.1.5 1.1 1 0 .6-.5 1-1 1-.6 0-1-.4-1-1" class="st6"/><path d="M84.9 182.5c0-.5.5-1 1-1 .6 0 1.1.5 1.1 1 0 .6-.5 1-1 1-.6 0-1-.4-1-1h-.1z" class="st8"/><path d="M85.7 179.5c0-.6.5-1 1-1 .6 0 1 .4 1 1s-.4 1-1 1-1-.4-1-1" class="st6"/><path d="M85.7 179.5c0-.6.5-1 1-1 .6 0 1 .4 1 1s-.4 1-1 1-1-.4-1-1z" class="st8"/><path d="M87.3 176.6c0-.5.5-1 1-1 .6 0 1.1.5 1.1 1s-.5 1-1 1c-.6 0-1-.4-1-1" class="st6"/><path d="M87.3 176.6c0-.5.5-1 1-1 .6 0 1.1.5 1.1 1s-.5 1-1 1c-.6 0-1-.4-1-1h-.1z" class="st8"/><path d="M89.5 174.3c0-.6.4-1 1-1s1 .4 1 1-.4 1-1 1-1-.4-1-1" class="st6"/><path d="M89.5 174.3c0-.6.4-1 1-1s1 .4 1 1-.4 1-1 1-1-.4-1-1z" class="st8"/><path d="M92 172.3c0-.5.4-1 1-1s1 .5 1 1-.4 1-1 1-1-.4-1-1" class="st6"/><path d="M92 172.3c0-.5.4-1 1-1s1 .5 1 1-.4 1-1 1-1-.4-1-1z" class="st8"/><path d="M95 170.8c0-.6.4-1 1-1s1 .4 1 1-.4 1-1 1-1-.4-1-1" class="st6"/><path d="M95 170.8c0-.6.4-1 1-1s1 .4 1 1-.4 1-1 1-1-.4-1-1z" class="st8"/><path d="M98.1 169.6c0-.5.5-1 1-1 .6 0 1 .4 1 1s-.4 1-1 1-1-.4-1-1" class="st6"/><path d="M98.1 169.6c0-.5.5-1 1-1 .6 0 1 .4 1 1s-.4 1-1 1-1-.4-1-1z" class="st8"/><path d="M101.5 169c0-.5.5-1 1.1-1 .6 0 1 .4 1 1s-.4 1-1 1-1-.4-1-1" class="st6"/><path d="M101.5 169c0-.5.5-1 1.1-1 .6 0 1 .4 1 1s-.4 1-1 1-1-.4-1-1h-.1z" class="st8"/><path d="M104.9 168.8c0-.5.4-1 1-1s1 .5 1 1-.4 1-1 1-1-.4-1-1" class="st6"/><path d="M104.9 168.8c0-.5.4-1 1-1s1 .5 1 1-.4 1-1 1-1-.4-1-1z" class="st8"/><path d="M108.1 169c0-.6.5-1 1-1 .6 0 1.1.4 1.1 1s-.5 1-1 1c-.5.1-1-.3-1.1-.9v-.1" class="st6"/><path d="M108.1 169c0-.6.5-1 1-1 .6 0 1.1.4 1.1 1s-.5 1-1 1c-.5.1-1-.3-1.1-.9v-.1z" class="st8"/><path d="M111.3 169c0-.6.5-1 1-1 .7 0 1.2.4 1.2 1s-.5 1-1.1 1c-.6 0-1-.4-1.1-1" class="st6"/><path d="M111.3 169c0-.6.5-1 1-1 .7 0 1.2.4 1.2 1s-.5 1-1.1 1c-.6 0-1-.4-1.1-1z" class="st8"/><path d="M109.7 171.7c0-.5.5-1 1-1 .7 0 1.1.5 1.1 1s-.4 1-1 1-1-.4-1-1m-.7 3.1c0-.6.4-1 1-1s1 .4 1 1c0 .5-.4 1-1 1s-1-.4-1-1m-.2 3c0-.5.5-1 1-1 .7 0 1.1.5 1.1 1s-.4 1-1 1-1-.4-1-1m.9 2.8c0-.5.5-1 1-1 .6 0 1.1.5 1.1 1 0 .6-.5 1-1 1-.5.1-1-.3-1.1-.9v-.1m1.8 2.6c0-.5.5-1 1-1 .6 0 1 .4 1 1s-.4 1-1 1-1-.4-1-1" class="st21"/><path d="M113.8 167c0-.5.5-1 1-1 .6 0 1 .4 1 1s-.4 1-1 1-1-.4-1-1" class="st6"/><path d="M113.8 167c0-.5.5-1 1-1 .6 0 1 .4 1 1s-.4 1-1 1-1-.4-1-1z" class="st8"/><path d="M116.7 165.5c0-.6.4-1 1-1s1 .4 1 1-.4 1-1 1-1-.4-1-1" class="st6"/><path d="M116.7 165.5c0-.6.4-1 1-1s1 .4 1 1-.4 1-1 1-1-.4-1-1z" class="st8"/><path d="M119.8 164.5c0-.6.5-1 1-1 .7 0 1.1.4 1.1 1 0 .5-.4 1-1 1s-1-.5-1-1" class="st6"/><path d="M119.8 164.5c0-.6.5-1 1-1 .7 0 1.1.4 1.1 1 0 .5-.4 1-1 1s-1-.5-1-1h-.1z" class="st8"/><path d="M123.1 163.9c0-.5.5-1 1-1 .7 0 1.1.5 1.1 1s-.4 1-1 1-1-.4-1-1" class="st6"/><path d="M123.1 163.9c0-.5.5-1 1-1 .7 0 1.1.5 1.1 1s-.4 1-1 1-1-.4-1-1h-.1z" class="st8"/><path d="M126.4 164c0-.6.4-1 1-1s1 .4 1 1c0 .5-.4 1-1 1s-1-.4-1-1" class="st6"/><path d="M126.4 164c0-.6.4-1 1-1s1 .4 1 1c0 .5-.4 1-1 1s-1-.4-1-1z" class="st8"/><path d="M129.7 164.5c0-.5.5-1 1-1 .7 0 1.1.5 1.1 1s-.4 1-1 1-1-.4-1-1" class="st6"/><path d="M129.7 164.5c0-.5.5-1 1-1 .7 0 1.1.5 1.1 1s-.4 1-1 1-1-.4-1-1h-.1z" class="st8"/><path d="M132.8 165.6c0-.5.5-1 1-1 .7 0 1.1.5 1.1 1s-.4 1-1 1-1-.4-1-1" class="st6"/><path d="M132.8 165.6c0-.5.5-1 1-1 .7 0 1.1.5 1.1 1s-.4 1-1 1-1-.4-1-1h-.1z" class="st8"/><path d="M106.2 229.4h-1v-1h-1.5v3.6h1.6v2.5h-3.4v7h1.8v14.3h-3.5v7.3h27.2v-7.3h-3.5v-14.3h1.8v-7h-3.4V232h1.6v-3.5h-1.6v.9h-.8v-1h-1.6v1h-1.1v-1h-1.6v3.6h1.6v2.5h-3.3v-7.8h1.7v-3.5h-1.7v.9h-1v-1H113v1h-.9v-1h-1.6v3.6h1.7v7.8h-3.3V232h1.6v-3.5h-1.6v.9h-.9v-1h-1.8v1zm-6 33.7h27.3m-27.3-1.8h27.3m-27.3-1.8h27.3m-27.3-1.7h27.3m-27.3-2h27.3m-23.8-1.6h20.2m-20.2-1.8h20.2m-20.2-2h20.2m-20.2-1.7h20.2m-20.2-1.8h20.2m-20.2-1.8h20.2m-20.2-1.7h20.2m-22-1.8h23.8m-23.8-1.8h23.8m-23.8-1.8h23.8m-23.8-1.8h23.8m-20.4-1.7h17m-10.2-1.8h3.4m-3.4-1.8h3.4m-3.4-1.8h3.4m-3.4-1.7h3.4m-5.1-2.2h6.8m-12 7.5h3.6m-5-2.2h6.6m-6.7 32.6v-1.8m0-1.8v-1.7m-1.8 1.7v1.8m3.4 0v-1.8m1.7 3.6v-1.8m0-1.8v-1.7m0-2v-1.6m0-1.8v-2m-1.7 7.4v-2m-3.4 2v-2m7 0v2m1.5-2v-1.6m-5.1-1.8v1.8m3.5-1.8v1.8m3.3-1.8v1.8m-1.6-1.7v-2m1.7-1.7v1.7m0-5.3v1.8m-1.7-3.6v1.8m1.7-3.5v1.7m-3.3-1.7v1.7m-3.5-1.7v1.7m-1.6-3.5v1.8m3.3-1.8v1.8m3.4-1.8v1.8m1.7-3.6v1.8m-3.3-1.8v1.8m-3.5-1.8v1.8m-1.6-3.6v1.8m6.7-1.8v1.8m-3.4-5.3v1.8m15.3-1.8h-3.5m5-2.2h-6.6m6.7 32.6v-1.8m0-1.8v-1.7m1.8 1.7v1.8m-3.4 0v-1.9m-1.7 3.6v-1.8m0-1.8v-1.7m0-2v-1.6m0-1.8v-2m1.7 7.4v-2m3.4 2v-2m-7 0v2m-1.5-2v-1.6m5.1-1.8v1.8m-3.5-1.8v1.8m-3.3-1.8v1.8m1.7-1.8v-2m-1.7-1.7v1.7m0-5.3v1.8m1.7-3.6v1.8m-1.7-3.5v1.7m3.3-1.7v1.7m3.5-1.7v1.7m1.6-3.5v1.8m-3.3-1.8v1.8m-3.4-1.8v1.8m-1.7-3.6v1.8m3.3-1.8v1.8m3.5-1.8v1.8m1.6-3.6v1.8m-6.7-1.8v1.8m3.4-5.3v1.8m-7 18v-2m0-5.4v-1.8m0 5.4v-1.8m0-5.3v-1.8m0-1.8v-1.7m0-3.6v-1.8m0-1.7v-1.8m-8.3 4.6h3.5m3.3-5.3h3.4m3.3 5.3h3.5" class="st16"/><path d="M118.3 263.1v-4.7c0-.8-.4-3.5-4.6-3.5-4 0-4.4 2.7-4.4 3.5v4.7h9z" class="st16"/><path d="m110.8 258.7-2.2-.3c0-.9.2-2.2.9-2.6l2 1.5c-.3.2-.7 1-.7 1.4zm6 0 2.2-.3c0-.9-.2-2.2-.9-2.6l-2 1.5c.3.2.7 1 .7 1.4zm-2.2-2.3 1-2c-.6-.3-1.3-.4-2-.4l-1.7.4 1.1 2h1.6zm-4.2-5.5V246c0-1.3-1-2.4-2.5-2.4s-2.4 1-2.4 2.4v4.9h4.9zm6.8 0V246c0-1.3 1-2.4 2.5-2.4s2.4 1 2.4 2.4v4.9h-4.9zm-1.7-12 .4-4.4h-4.2l.2 4.4h3.6zm3.3 0-.4-4.4h4.4l-.5 4.4h-3.5zm-10 0 .2-4.4h-4.2l.5 4.4h3.5z" class="st16"/><path d="M116.8 263.1v-4c0-.7-.5-2.7-3.1-2.7-2.4 0-2.9 2-2.9 2.7v4h6zm-6.9-12.7v-4.2c0-1-.6-2.2-2-2.2s-2 1.1-2 2.2v4.3h4v-.1zm7.8 0v-4.2c0-1 .7-2.2 2-2.2s2 1.1 2 2.2v4.3h-4v-.1z" style="fill:#0039f0"/><path d="M122.3 270.3c0-9.7 7-17.6 15.6-17.6s15.6 7.9 15.6 17.6-7 17.5-15.6 17.5-15.6-7.8-15.6-17.5" class="st2"/><path d="M122.3 270.3c0-9.7 7-17.6 15.6-17.6s15.6 7.9 15.6 17.6-7 17.5-15.6 17.5-15.6-7.8-15.6-17.5z" class="st18"/><path d="M126.9 270.2c0-7 5-12.8 11-12.8s11 5.7 11 12.8c0 7.2-5 13-11 13s-11-5.8-11-13" class="st10"/><path d="M126.9 270.2c0-7 5-12.8 11-12.8s11 5.7 11 12.8c0 7.2-5 13-11 13s-11-5.8-11-13z" class="st18"/><path d="M132.7 261.4s-1.3 1.4-1.3 2.7c0 .8.2 1.7.6 2.4-.2-.5-.8-.8-1.4-.8-.8 0-1.4.6-1.4 1.3l.2.8.5.9c.1-.3.5-.5 1-.5s1 .4 1 1v.2h-1.2v1h1l-.8 1.5 1-.4.8.9.8-.9 1 .4-.7-1.5h1v-1h-1.1v-.3c0-.6.4-1 1-1 .4 0 .7.3 1 .6l.4-1 .2-.7c-.1-.7-.7-1.3-1.4-1.3s-1.2.3-1.4.9c0 0 .6-1.2.6-2.5s-1.4-2.7-1.4-2.7" class="st4"/><path d="M132.7 261.4s-1.3 1.4-1.3 2.7c0 .8.2 1.7.6 2.4-.2-.5-.8-.8-1.4-.8-.8 0-1.4.6-1.4 1.3l.2.8.5.9c.1-.3.5-.5 1-.5s1 .4 1 1v.2h-1.2v1h1l-.8 1.5 1-.4.8.9.8-.9 1 .4-.7-1.5h1v-1h-1.1v-.3c0-.6.4-1 1-1 .4 0 .7.3 1 .6l.4-1 .2-.7c-.1-.7-.7-1.3-1.4-1.3s-1.2.3-1.4.9c0 0 .6-1.2.6-2.5s-1.4-2.7-1.4-2.7z" class="st3"/><path d="M130.7 270.4h4.1v-1h-4.1v1z" class="st4"/><path d="M130.7 270.4h4.1v-1h-4.1v1z" class="st5"/><path d="M142.9 261.4s-1.3 1.4-1.3 2.7c0 1.3.6 2.4.6 2.4-.2-.5-.7-.8-1.4-.8-.8 0-1.4.6-1.4 1.3l.2.8.5.9c.2-.3.5-.5 1-.5.6 0 1 .4 1 1v.2h-1.2v1h1l-.8 1.5 1-.4.8.9.8-.9 1 .4-.7-1.5h1v-1h-1.1v-.3c0-.6.4-1 1-1 .4 0 .8.3 1 .6l.4-1 .2-.7c-.1-.7-.7-1.3-1.4-1.3-.6 0-1.2.3-1.4.9 0 0 .6-1.2.6-2.5s-1.4-2.7-1.4-2.7" class="st4"/><path d="M142.9 261.4s-1.3 1.4-1.3 2.7c0 1.3.6 2.4.6 2.4-.2-.5-.7-.8-1.4-.8-.8 0-1.4.6-1.4 1.3l.2.8.5.9c.2-.3.5-.5 1-.5.6 0 1 .4 1 1v.2h-1.2v1h1l-.8 1.5 1-.4.8.9.8-.9 1 .4-.7-1.5h1v-1h-1.1v-.3c0-.6.4-1 1-1 .4 0 .8.3 1 .6l.4-1 .2-.7c-.1-.7-.7-1.3-1.4-1.3-.6 0-1.2.3-1.4.9 0 0 .6-1.2.6-2.5s-1.4-2.7-1.4-2.7z" class="st3"/><path d="M140.9 270.4h4.1v-1h-4.1v1z" class="st4"/><path d="M140.9 270.4h4.1v-1h-4.1v1z" class="st5"/><path d="M137.8 270.1s-1.3 1.5-1.3 2.8.6 2.4.6 2.4c-.2-.5-.7-.9-1.4-.9-.8 0-1.4.6-1.4 1.4l.2.7.5 1c.1-.4.5-.6 1-.6.6 0 1 .4 1 1v.3h-1.2v1h1l-.8 1.5 1-.4.8.9.8-1 1 .5-.7-1.5h1v-1h-1.1v-.3c0-.6.4-1 1-1 .4 0 .7.2.9.6l.5-1 .2-.7c0-.8-.6-1.4-1.4-1.4-.7 0-1.2.4-1.4 1 0 0 .6-1.2.6-2.5s-1.4-2.7-1.4-2.8" class="st4"/><path d="M137.8 270.1s-1.3 1.5-1.3 2.8.6 2.4.6 2.4c-.2-.5-.7-.9-1.4-.9-.8 0-1.4.6-1.4 1.4l.2.7.5 1c.1-.4.5-.6 1-.6.6 0 1 .4 1 1v.3h-1.2v1h1l-.8 1.5 1-.4.8.9.8-1 1 .5-.7-1.5h1v-1h-1.1v-.3c0-.6.4-1 1-1 .4 0 .7.2.9.6l.5-1 .2-.7c0-.8-.6-1.4-1.4-1.4-.7 0-1.2.4-1.4 1 0 0 .6-1.2.6-2.5s-1.4-2.7-1.4-2.8z" class="st3"/><path d="M135.8 279.1h4.1v-1h-4.1v1z" class="st4"/><path d="M135.8 279.1h4.1v-1h-4.1v1z" class="st5"/><path d="M169.1 223.9h-.3c-.1.1-.2.3-.3.4-.2.2-.6.2-.8 0-.1-.1-.1-.3-.1-.4-.2.1-.3.1-.5 0-.3-.1-.3-.5-.1-.7v-.5h-.3l-.1.2c-.2.3-.5.3-.7.2v-.2h-.3c-.5.2-.7-1-.7-1.2l-.2.2s.2.7.1 1.2c0 .6-.3 1.2-.3 1.2 1.1.3 2 .9 2.9 1.6.9.6 1.6 1.4 2.2 2.3l1.2-.5c.6-.2 1.3-.2 1.3-.2l.2-.2c-.3 0-1.5.1-1.5-.4v-.2h-.2c-.2-.2-.2-.4 0-.7l.2-.1v-.3h-.3l-.2.1c-.2.3-.6.3-.8 0-.1-.1-.1-.3-.1-.4-.2.1-.3.1-.5 0-.2-.2-.3-.5 0-.8l.2-.3v-.3z" class="st4"/><path d="M169.1 223.9h-.3c-.1.1-.2.3-.3.4-.2.2-.6.2-.8 0-.1-.1-.1-.3-.1-.4-.2.1-.3.1-.5 0-.3-.1-.3-.5-.1-.7v-.5h-.3l-.1.2c-.2.3-.5.3-.7.2v-.2h-.3c-.5.2-.7-1-.7-1.2l-.2.2s.2.7.1 1.2c0 .6-.3 1.2-.3 1.2 1.1.3 2 .9 2.9 1.6.9.6 1.6 1.4 2.2 2.3l1.2-.5c.6-.2 1.3-.2 1.3-.2l.2-.2c-.3 0-1.5.1-1.5-.4v-.2h-.2c-.2-.2-.2-.4 0-.7l.2-.1v-.3h-.3l-.2.1c-.2.3-.6.3-.8 0-.1-.1-.1-.3-.1-.4-.2.1-.3.1-.5 0-.2-.2-.3-.5 0-.8l.2-.3v-.3z" class="st5"/><path d="M166.9 224.5h.2v.3h-.1c-.1 0-.1-.2 0-.2"/><path d="M166.9 224.5h.2v.3h-.1c-.1 0-.1-.2 0-.2l-.1-.1z" class="st14"/><path d="m167.8 225.3-.3-.2v-.2h.1l.4.3.3.2v.2h-.2l-.3-.3z"/><path d="m167.8 225.3-.3-.2v-.2h.1l.4.3.3.2v.2h-.2l-.3-.3" class="st14"/><path d="m166.1 224.2-.2-.2s-.1 0 0-.1l.3.1.3.1v.2h-.1l-.3-.1z"/><path d="m166.1 224.2-.2-.2s-.1 0 0-.1l.3.1.3.1v.2h-.1l-.3-.1" class="st14"/><path d="M165.2 223.5h.2v.2h-.2s-.1-.1 0-.2"/><path d="M165.2 223.5h.2v.2h-.2s-.1-.1 0-.2z" class="st14"/><path d="M168.8 226v-.2h-.3l.1.2h.2z"/><path d="M168.8 226v-.2h-.3l.1.2h.2z" class="st14"/><path d="m169.4 226.7.2.2h.1c.1 0 0-.1 0-.2l-.2-.2-.2-.2h-.1v.2l.2.2z"/><path d="m169.4 226.7.2.2h.1c.1 0 0-.1 0-.2l-.2-.2-.2-.2h-.1v.2l.2.2" class="st14"/><path d="M170.3 227.5v-.3h-.3v.2h.3"/><path d="M170.3 227.5v-.3h-.3v.2h.3v.1z" class="st14"/><path d="M167.7 221.6h-.6l-.1.9v.1h.2l.7-.5-.3-.5" class="st4"/><path d="M167.7 221.6h-.6l-.1.9v.1h.2l.7-.5-.3-.5" class="st5"/><path d="M166.1 222.1v.5l.9.1h.1v-.2l-.5-.7-.5.3z" class="st4"/><path d="M166.1 222.1v.5l.9.1h.1v-.2l-.5-.7-.5.3" class="st5"/><path d="m167.9 223.1-.4.3-.6-.7v-.1h1.1l-.1.5z" class="st4"/><path d="m167.9 223.1-.4.3-.6-.7v-.1h1.1v.5" class="st5"/><path d="M166.8 222.5c.1-.1.3-.1.4 0 .1.1.1.2 0 .3-.1.1-.2.1-.3 0-.1-.1-.2-.2-.1-.3" class="st4"/><path d="M166.8 222.5c.1-.1.3-.1.4 0 .1.1.1.2 0 .3-.1.1-.2.1-.3 0-.1-.1-.2-.2-.1-.3z" class="st5"/><path d="m164.7 221.6-.2-.7-.4-.4s.4-.2.8.1c.4.3 0 .9 0 .9l-.2.1z" class="st4"/><path d="m164.7 221.6-.2-.7-.4-.4s.4-.2.8.1c.4.3 0 .9 0 .9l-.2.1z" class="st5"/><path d="m165.7 221.9-.4.4-.6-.6v-.2h1v.4z" class="st4"/><path d="m165.7 221.9-.4.4-.6-.6v-.2h1v.4" class="st5"/><path d="m164.6 221.5.3-.1v.3c0 .2-.1.2-.2.2l-.1-.4z" class="st4"/><path d="m164.6 221.5.3-.1v.3c0 .2-.1.2-.2.2l-.1-.4z" class="st5"/><path d="M169.8 223h-.5l-.3.7v.2h.2l.8-.4-.2-.5z" class="st4"/><path d="M169.8 223h-.5l-.3.7v.2h.2l.8-.4-.2-.5" class="st5"/><path d="M168.2 223.3v.5l.8.2h.1v-.2l-.4-.7-.5.2z" class="st4"/><path d="M168.2 223.3v.5l.8.2h.1v-.2l-.4-.7-.5.2" class="st5"/><path d="m169.9 224.5-.5.2-.4-.7v-.2h.1l.9.2-.1.5z" class="st4"/><path d="m169.9 224.5-.5.2-.4-.7v-.2h.1l.9.2-.1.5" class="st5"/><path d="M168.8 223.7h.4c.1.1.1.3 0 .4-.1.1-.2.1-.3 0-.1-.1-.1-.3-.1-.4" class="st4"/><path d="M168.8 223.7h.4c.1.1.1.3 0 .4-.1.1-.2.1-.3 0-.1-.1-.1-.3-.1-.4z" class="st5"/><path d="m171.7 224.8.1.5-.8.3h-.2v-.2l.4-.8.5.2z" class="st4"/><path d="m171.7 224.8.1.5-.8.3h-.2v-.2l.4-.8.5.2" class="st5"/><path d="m171.5 226.3-.5.1-.3-.8v-.1h.2l.8.3-.2.5z" class="st4"/><path d="m171.5 226.3-.5.1-.3-.8v-.1h.2l.8.3-.2.5" class="st5"/><path d="m170.1 224.8-.2.5.9.3h.1v-.1l-.3-.8-.5.1z" class="st4"/><path d="m170.1 224.8-.2.5.9.3h.1v-.1l-.3-.8-.5.1" class="st5"/><path d="M171 225.7c.1-.1.1-.2 0-.3a.3.3 0 0 0-.4 0c-.1.1-.1.2 0 .3.1.1.3.1.4 0" class="st4"/><path d="M171 225.7c.1-.1.1-.2 0-.3a.3.3 0 0 0-.4 0c-.1.1-.1.2 0 .3.1.1.3.1.4 0z" class="st5"/><path d="M172.3 227.5h.8l.5.3s.1-.4-.3-.7c-.3-.3-.8.2-.8.2l-.2.2z" class="st4"/><path d="M172.3 227.5h.8l.5.3s.1-.4-.3-.7c-.3-.3-.8.2-.8.2l-.2.2z" class="st5"/><path d="m171.8 226.6-.3.5.8.5v-.1h.2l-.1-1-.6.1z" class="st4"/><path d="m171.8 226.6-.3.5.8.5v-.1h.2l-.1-1-.6.1" class="st5"/><path d="M172.5 227.5s.1-.1 0-.2h-.3c-.2 0-.2.1-.1.2h.4z" class="st4"/><path d="M172.5 227.5s.1-.1 0-.2h-.3c-.2 0-.2.1-.1.2h.4zm38-21.9v.6h-2.4v-.6h1v-1.3h-.7v-.5h.6v-.6h.6v.6h.6v.6h-.6v1.2h1" class="st5"/><path d="M65.9 217.6v-1.2m-.4 1.2v-1.2m-.2 1.2v-1.2m-.3 1.2v-1.2" class="st36"/><path d="M64.7 217.6v-1.2m-.5 1.1v-1m.2 1v-1m-.7 1v-1m.2 1v-1m-.9 1v-1m.2 1v-1m.3 1v-1m-.7 1v-1m-.3.9v-.8m-.1.8v-.8m-.5.7v-.6m.2.6v-.6m-.4.5v-.5m-.2.5v-.4m-.3.3v-.3m-.3.3v-.2" class="st14"/><path d="M60.7 217.1v-.2" class="st12"/><path d="M67.2 217.5v-1m-.5 1v-1m-.4 1.2v-1.2m143 1.1v-1.1m-.4 1.1v-1.1m-.3 1.1v-1.1m-.3 1.2v-1.2" class="st36"/><path d="M208.1 217.6v-1.1m-.6 1v-1m.3 1v-1m-.8 1v-1m.3 1v-1m-.9 1v-1m.2 1v-1m.2 1v-1m-.6 1v-1m-.3.9v-.8m-.2.8v-.8m-.4.7v-.6m.2.6v-.6m-.5.6v-.6m-.2.5v-.4m-.3.4v-.4m-.2.3v-.2" class="st14"/><path d="M204.1 217.1v-.2" class="st12"/><path d="M210.6 217.5v-1m-.6 1v-1m-.4 1.1v-1.1" class="st36"/><defs><filter id="Adobe_OpacityMaskFilter" width="1109.3" height="735.5" x="-277.3" y="-128.4" filterUnits="userSpaceOnUse"><feColorMatrix values="1 0 0 0 0 0 1 0 0 0 0 0 1 0 0 0 0 0 1 0"/></filter></defs><mask id="mask0_298_245_00000177477424245714452610000005774496426665868703_" width="1109.3" height="735.5" x="-277.3" y="-128.4" maskUnits="userSpaceOnUse"><circle cx="317.5" cy="269.5" r="337.6" style="fill:#d9d9d9;filter:url(#Adobe_OpacityMaskFilter)"/></mask><g style="mask:url(#mask0_298_245_00000177477424245714452610000005774496426665868703_)"><path d="M-277.3-128.4H832v735.5H-277.3z" class="st36"/><path d="M604.2 280.1v13.4h-34.8V222h15.7v58.1h19.1zM560.1 239.4V276c0 10.9-7.1 18.5-21.7 18.5-14.5 0-21.6-7.5-21.6-18.5v-36.6c0-10.9 7-18.5 21.6-18.5 14.6 0 21.7 7.6 21.7 18.5zm-15.5 35.8v-35c0-3.1-1.9-5.2-6.2-5.2-4.3 0-6.1 2-6.1 5.2v35c0 3.1 1.8 5.2 6.1 5.2 4.4 0 6.2-2 6.2-5.2zM479.2 207.1c4.1 0 7.1 2.7 10.3 3.1 1 0 1.5-.4 1.5-1.4V207h7.4v1.8c0 5.5-3 8.4-7.5 8.4-4.6 0-7.9-3.1-10.3-3.1-1 0-1.5.5-1.5 1.5v1.7h-7.4v-1.8c0-5.5 3-8.4 7.5-8.4zm13.5 86.4-9.6-24.6c-5.8-14.8-8-22.8-8.5-23.9.4 1.2 2.6 10.2 2.6 29.5v19H462V222h15.3l9.4 23.9c5.5 14 7.7 22 8.1 23.7-.5-1.9-2.5-11.2-2.5-29.7v-18h15.3v71.5h-14.9zM420.9 222h20l14.9 71.5h-15.3l-3.1-16.5h-13l-3.1 16.5H406l14.9-71.5zm10 15.5c-.8 8-1.8 14.3-4 26.4h8c-2.3-12.5-3.2-18.3-4-26.4zM380.3 272.4V259c.7.2 1.7.3 2.3.3 3 0 4.3-1.3 4.3-4.2v-14.5c0-3.1-1.9-5.2-6.2-5.2H376v58.1h-15.6V222h20.4c14.5 0 21.7 7.5 21.7 18.5v14.1c0 11.9-6.3 18.4-16.5 18.4-1.6-.1-4.1-.3-5.7-.6zM332.8 267.2l-12.4-8c-6.2-4-9.7-9.8-9.7-17.5v-2.4c0-10.9 6.4-18.3 20.9-18.3 14.5 0 21 7.3 21 18.3v5.6H337v-5c0-3.1-1.1-5-5.4-5s-5.3 1.8-5.3 5v1.4c0 2.8 1.1 4.7 5.2 7.3l12.5 8c6.7 4.3 9.1 9.3 9.1 17.3v2.3c0 10.9-6.9 18.3-21.5 18.3-14.5 0-21.4-7.3-21.4-18.3v-5.5H326v4.8c0 3.1 1.3 5 5.7 5s5.8-1.8 5.8-5v-1.4c-.1-2.8-.9-4.6-4.7-6.9zM305.7 280.1v13.4h-36.2V222h36.2v13.4H285v15.2h17.9V264H285v16.1h20.7z" class="st2"/></g></svg>